<?xml version="1.0" encoding="UTF-8"?>
<svg id="Layer_1" xmlns="http://www.w3.org/2000/svg" version="1.1" viewBox="0 0 533.5 780">
  <!-- Generator: Adobe Illustrator 30.2.1, SVG Export Plug-In . SVG Version: 2.1.1 Build 1)  -->
  <defs>
    <style>
      .st0 {
        fill: #f9fcff;
      }

      .st1 {
        fill: #ff9c56;
      }
    </style>
  </defs>
  <path class="st0" d="M385.9-114.5c49.6,1.7,144.9,65.5,144.9,106.4-4,76.1-49.4,144.8-105.8,196-15.7,14.2-33.2,27.8-53.9,32.4-26.4,5.8-54.5-4.3-75.4-21.6-20.9-17.2-35.5-40.8-47.8-64.9,0,0-27.3-51.7-25.5-90.8,4.7-97.7,97.1-159.9,163.5-157.6Z"/>
  <path class="st1" d="M524.4-18.2h0c2.4-.9,4.5,1.2,5.4,3.3,1,2.1,1.4,4.5,1.3,6.8-.1,3.2-.3,6.4-.6,9.6-6.1,70.8-47.3,134.1-98.2,182.1-2,1.9-4,3.7-6,5.6-15.7,14.2-33.3,28-54.7,32.7-27.4,5.9-55.7-4.9-76.4-22.3-14.9-12.5-26.5-28.3-36.2-45-3.9-6.8-7.6-13.7-11-20.7h0c3.7,6.9,7.5,13.7,11.6,20.3,10.1,16.3,22,31.7,36.9,43.8,20.7,16.7,48.3,26.6,74.4,20.8,20.4-4.6,37.5-18.1,53.1-32.2,2-1.8,4-3.7,6-5.5,50.5-47.7,91.9-109.3,100-179.6.4-3.2.6-6.4.9-9.6.1-2.3-.2-4.6-1.1-6.7-.8-2.1-2.8-4.2-5.2-3.4Z"/>
  <path class="st1" d="M231.4,87.2h0c-3.9-8.8-6.5-18.2-7.8-27.7-2.7-19.4-.3-39.3,5.9-57.9,9.3-27.9,26.8-52.3,47.1-73.2,27.7-26.6,65.3-43.1,104.1-42.9,15.2.5,31.2,5.3,42,16.7,10.9,11.4,15.2,27,16.2,42.3.6,9.6-.7,19-2,28.3-6.5,46.5-13.4,94.5-36.6,136.1-1.6,2.9-3.3,5.8-5.1,8.6-3.2,4.9-8.9,11.3-15.2,8.3h0c6.4,2.8,11.8-3.7,14.8-8.6,1.7-2.9,3.3-5.7,4.9-8.7,22.2-41.9,28.2-89.6,34.3-136.2,1.2-9.3,2.4-18.5,1.7-27.7,0-30.2-24.6-56.9-55.1-55.7-37.3-.3-74.8,15.9-101.9,41.4-20.3,20.5-37.8,44.4-47.5,71.8-6.4,18.2-9.2,37.9-6.9,57.2,1.1,9.5,3.5,18.9,7.2,27.8Z"/>
  <path class="st1" d="M385.1,28.8h0c.3,2.5.5,5,.6,7.4,1.2,22.2-2.6,44.8-11.2,65.5,0,.2-.1.3-.2.5-2.6,6.2-5.8,12.4-10.8,17.3-5.1,5-12.4,8.3-19.8,7-2.5-.4-5.1-1.5-6.8-3.7-1-1.4-1.5-3-1.9-4.5-1.2-5-1.8-10.1-1.7-15.2,0-2.5.3-5,.7-7.4h0c-.2,2.5-.2,5,0,7.4.3,5,1.3,10,2.8,14.7.5,1.4,1,2.7,1.8,3.7,1.3,1.5,3.4,2.3,5.5,2.6,6.3.8,12.7-2.3,17.1-6.9,4.4-4.5,7.3-10.4,9.9-16.4,0-.2.1-.3.2-.5,8.4-20.3,13.1-42.1,13.8-64.2,0-2.5,0-5,0-7.4Z"/>
  <path class="st1" d="M362.2,56.1c-.1,3.7-.8,7.4-2.1,10.9-1.4,3.8-3.3,7.5-5.9,10.7-1.7,2.1-4.1,4.5-7.5,4.4-3.4-.2-5.8-3.1-6.5-6.1-.8-3-.3-6,.2-8.8,3.9-21,12.1-40.5,19.1-60.3,3.1-8.7,6.2-17.4,8.4-26.3,3.2-13.2,5-26.7,5.1-40.4,0-6.3-1-14.4-7.4-16.6-3.3-1.1-6.9.3-9.6,2.6-2.8,2.4-5,5.4-6.7,8.7,1.5-3.4,3.5-6.6,6.2-9.2,2.6-2.5,6.5-4.4,10.4-3.3,7.6,2.3,8.9,11.2,9.2,17.8.4,13.8-1,27.6-4.1,41.1-2.1,9.1-5.2,18-8.3,26.7-7,19.8-15.6,39.2-20.1,59.5-.6,2.7-1.1,5.4-.5,7.8.5,2.3,2.3,4.6,4.7,4.9,2.3.2,4.6-1.6,6.3-3.6,2.6-3,4.7-6.4,6.3-10.1,1.4-3.4,2.3-7,2.7-10.7Z"/>
  <path class="st1" d="M283.3,117.7c-1.1-1.8-2.1-3.6-3-5.5-8.6-16.7-12-35.9-12-54.7h0c0-18.9,3.1-37.5,7-55.7.4-2,.9-4.1,1.3-6.1-.2,2.1-.4,4.1-.7,6.2-2,18.6-4.2,37.1-4.2,55.6h0c0,18.5,2.3,37.1,9.1,54.5.8,1.9,1.6,3.8,2.4,5.7Z"/>
  <path class="st1" d="M489-67.2c-.2,5.5-.5,10.9-.9,16.4-3.2,49-11.4,98.5-31.8,143.8-4.9,10.9-10.6,21.5-17,31.7-11.4,18.1-25.8,35.3-44.9,45.8-14.1,7.7-30.7,11.3-46.5,8.6-5.4-1-10.7-2.7-15.5-5.2,5,2.3,10.3,3.8,15.6,4.5,15.7,2.1,31.8-2,45.3-9.8,18.3-10.7,32-27.7,43.1-45.7,6.2-10.1,11.8-20.6,16.6-31.4,20.2-44.7,29.2-93.6,34.3-142.4.6-5.4,1.1-10.9,1.6-16.3Z"/>
  <path class="st1" d="M499.9-57.6c.7,2.2,1.4,4.3,2,6.5,5.5,19.7,6.5,40.8,3.2,61.1-3.3,20.4-10.9,39.9-21.5,57.4-1.2,1.9-2.4,3.9-3.6,5.8h0c1.1-2,2.1-4,3.1-6.1,8.9-18.3,15.4-37.7,18.6-57.6,3.2-19.9,3.2-40.4-.4-60.4-.4-2.2-.8-4.4-1.3-6.7Z"/>
  <path class="st1" d="M448.9,16.9h0c.5-1.8,1-3.7,1.5-5.5,4.4-16.6,7.6-33.5,9.4-50.5,1.1-10.1,1.7-20.2,1.9-30.3,0-2.6,0-5.1-1-7.3-1.2-2.6-3.9-4.4-6.2-6.7-.9-.9-1.7-1.9-2.3-3-1-1.7-1.4-3.8-.7-5.6h0c-.5,1.9.2,3.8,1.2,5.3.7,1,1.5,1.8,2.4,2.6,2.4,1.9,5.3,3.5,7.2,6.5,1.5,2.6,1.7,5.5,1.8,8.2.5,10.2.2,20.5-.9,30.7-1.9,17.2-6,34.2-12.2,50.3-.7,1.8-1.4,3.6-2.2,5.3Z"/>
  <path class="st1" d="M311.3,192.6c-.3,0-.7,0-1,0h0s0,0,0,0c-.8-.5-1.5-1.1-2.3-1.7-9.3-7-17.5-15.6-24-25.3-6.6-9.7-11.5-20.5-14.7-31.7-.3-1.2-.7-2.5-1-3.8.5,1.2,1.1,2.4,1.6,3.5,4.9,10.5,10.5,20.5,16.9,30,6.4,9.5,13.5,18.4,21.6,26.8.7.7,1.3,1.4,2,2h0c.3,0,.7,0,1,0Z"/>
  <path class="st1" d="M183,477.4c-3.3-8.6-9-16.1-16.1-21.9-13.4-11-30.9-16.5-48.1-16.2-7.8.2-15.6,1.4-22.5,4.7-15.3,7.4-23.9,23.3-30.3,38.8-8.3,18.4-5.5,38.9-7.7,59.2-2.2,20.5-11.3,39.5-22.5,56.4-2.3,3.5-4.7,6.9-7.3,10.3-38.9,68.9-3.3,156.8-32.3,228.5-4.7,1.8-9.1-.8-13-3.4-3.6-2.7-6.8-5.7-10.2-9.4,3.5,3.6,6.7,6.6,10.4,9.1,3.9,2.6,8.3,4.9,12.5,3.1,26.6-70.8-10.3-158,29.8-230,2.5-3.4,4.9-6.8,7.2-10.2,11.1-16.6,19.9-35,22.1-54.8,2.3-19.5-.4-40.9,8.4-59.9,6.6-15.6,15.7-32.1,32-39.6,7.4-3.4,15.5-4.5,23.4-4.5,17.6,0,35.3,5.9,48.5,17.4,7,6,12.6,13.8,15.6,22.4Z"/>
  <path class="st0" d="M462.6,494.2c-18.6,72.8-65.4,119.7-125.6,147.7-5.9,2.7-12,5.2-18.3,6.9-1.6-.4-4-.4-7.6.3-69.8,13-128.2-171.7-128.2-171.7-9.3-25-37.5-39.3-64.2-39-7.9,0-15.8,1.3-22.9,4.6-15.5,7.3-24.6,23.4-31.1,39.2-16.8,40.3,9.3,62.2-37.6,125.4-26.5,35.8-19.4,122.5-20.1,178.6-.1,11.6,2.4,22,7.2,30.3-16.1,54.1-22.4,89.7,6.2,141.9,53.5,97.5,298,180.5,513-9V295c-77,8.5-52.4,126.5-70.9,199.2Z"/>
  <path class="st1" d="M533.5,295c-32,1.7-50.1,33.5-54.7,62.2-8.8,45.2-4.7,92.1-15.5,137.2-15.2,65.9-64.4,121.3-125.8,148.7-13.7,6.4-29.2,11.8-44.8,8.2-7-1.6-13.3-5-19.4-8.2-22.5-12-46-24.5-62.4-45-14.2-17.8-21.5-39.4-31.3-59.2-9.6-19.5-23.1-38.9-43.6-46.6-5.3-1.9-11-3-16.1-1.6-4.7,1.3-8.8,4.4-12.5,8-34.4,26.1-37,71.9-43.1,112-1.5,12-3.2,23.6-5.1,35.2-8.5,53.4-22.6,105.6-38.9,157.1-17.1,50.2-28.4,107.7,1.6,154.7,97.9,134.8,305.9,128.3,439.2,44.8,25.7-15.4,49.9-33.3,72.5-53-22.5,20-46.5,38-72.1,53.6-133,84.4-341.8,93.1-442.2-43.9-30.7-47.6-19.3-107.3-2.2-157.2,16.3-51.5,30.2-103.4,38.7-156.7,1.9-11.6,3.6-23.2,5.1-35.1,6.1-39.9,9-87.3,44.3-114,3.9-3.6,8.4-7.2,13.9-8.7,6.2-1.7,12.6-.4,18.2,1.7,21.9,8.3,35.5,28.5,45.3,48.3,9.9,20.1,17.1,41.4,30.8,58.7,15.9,19.9,38.9,32.4,61.4,44.4,6.1,3.3,12.2,6.5,18.7,8,14.5,3.4,29.6-1.6,43.1-7.9,61-26.9,109.8-81.3,125.4-146.7,10.9-44.7,7.2-91.7,16.3-137,4.8-28.7,23.4-60.7,55.4-62.1Z"/>
  <path class="st1" d="M252.2,686.9c-10.9.7-22-1.1-32.2-5-6.5-2.5-12.6-5.8-18.2-9.9-9.8-7.2-19.9-17.9-32.3-15.3-5.4,1.2-9.9,5.1-15.2,7.9-13.6,7-31.6,3.9-42.1-7.5-5.7-6.1-10.8-15.1-18.6-13.9-4.6.8-7.7,5.3-10.1,9.8-10,19.1-14.1,40.6-20,61.6-6.1,22.1-10.8,44-11.8,66.7-.9,16.1,1.4,31.9,3.9,48.1,1.5,8.2-1.5,17.9-7.9,23.4-5.9,5.8-13.1,10.2-20,14.5-6.6,4.1-14.4,10-12.3,17.2,2.4,7,9.9,11.8,16.6,16.1,13.9,8.4,29.1,15.2,43.9,22.3,29.8,14.1,59.6,28.6,86.4,48,8.9,6.4,17.3,13.4,25.1,21-7.9-7.5-16.5-14.2-25.5-20.5-27.1-18.8-57-32.8-86.9-46.5-14.9-6.9-30.1-13.5-44.4-22-6.9-4.5-14.7-8.7-18.1-17.6-2.6-10.3,7-16.5,13.6-20.8,13-8.4,30-18.1,26.1-34.8-2.5-15.7-5-32.3-4-48.6,1.1-23.1,5.8-45.3,12.1-67.5,5.9-20.8,10.1-42.6,20.6-62.1,2.5-4.6,5.9-10,12.2-11.2,10.8-1.1,15.4,9.3,20.9,14.9,9.5,10.6,26.5,13.8,39.3,7.4,5-2.5,9.7-6.5,15.7-7.8,13.9-2.5,23.7,8.9,33.3,16.1,5.4,4.2,11.4,7.6,17.8,10.1,10.1,4.1,21,6.1,32,5.6Z"/>
  <path class="st1" d="M248.3,655.1h0c-4.6-1-9.1-2.7-13.2-5-14.2-7.8-24.6-20.6-34.5-33.1-16.3-20.7-32.8-42-42.3-67.1-.3-.9-.7-1.8-1-2.8-2.6-7.4-5-15.4-11.2-18.9-6.4-3.7-15.3-1.1-20.9,4.1-5.8,5.4-9,13.1-12,20.8-6.1,15.8-11.6,31.7-16.6,47.9-1.4,4.5-2.7,9-4,13.5h0c1.1-4.6,2.2-9.2,3.4-13.7,4.2-16.4,9.2-32.6,14.9-48.6,2.8-7.8,5.9-16,12.2-22.1,6.2-6,16.2-9.5,24.6-4.9,7.9,4.6,10.2,13.5,12.9,20.7.3.9.6,1.8,1,2.7,9.2,24.5,25.3,45.8,41,66.9,9.5,12.7,19.2,25.6,32.9,33.9,4,2.4,8.3,4.3,12.9,5.6Z"/>
  <path class="st1" d="M225.2,649.5c-2.6.5-5.3.7-8,.7-6-.1-12.1-1.5-17.5-4.5-7.5-4.2-13.3-11-21.2-12.2-8.9-1.6-17.4,3.4-26,7.5-5.4,2.5-11.2,4.9-17.5,5.1-9.5.3-18.4-4.3-24.4-11.2-6.2-7.2-8.9-17.5-6.3-26.5.7-2.6,1.8-5.1,3.3-7.3-1.2,2.4-2.1,4.9-2.6,7.5-1.8,9,1.4,18.3,7.5,24.7,5.8,6.1,14.2,10,22.5,9.5,5.6-.3,10.9-2.4,16.2-4.9,8.3-3.9,17.7-9.4,28.1-7.3,9.2,1.8,14.8,9.2,21.6,13.5,4.9,3.1,10.7,4.9,16.6,5.5,2.6.3,5.3.3,7.9,0Z"/>
  <path class="st1" d="M145.3,601.8h0c.2.9.3,1.9.2,2.9-.5,7.1-7.3,13.8-15.3,13h-1.3c0-.1-.2-1.5-.2-1.5-.2-1.8-.3-3.6-.4-5.4-.3-8.8,1.2-17.5,4.2-25.7.3-.9.7-1.8,1.1-2.7h0c-.1,1-.3,1.9-.4,2.9-1.1,8.5-1.6,17-1.3,25.4,0,1.7.1,3.5.2,5.2l-1.5-1.5c5.8.9,12.3-3.4,14.2-9.7.3-.9.4-1.8.5-2.8Z"/>
  <path class="st1" d="M245.5,735.4c-1.8.7-3.7,1.2-5.6,1.4-8.1.9-16.8-2.3-22.2-9-2.4-3.1-4-6.5-5.7-9.8-2.5-4.8-5.2-9.5-8.2-14.1-3-4.6-6.3-9.1-9.8-13.4-4.2-5.1-8.8-10-14.8-12.7-4.2-1.9-9.1-2.6-13.7-1.2-1.8.5-3.5,1.4-5,2.6,1.3-1.4,3-2.5,4.8-3.2,4.6-1.9,9.9-1.7,14.7,0,6.7,2.4,11.9,7.4,16.4,12.5,3.8,4.3,7.2,8.8,10.3,13.6,3.1,4.7,5.8,9.5,8.2,14.6,1.6,3.4,3,6.7,5,9.5,4.3,6.2,12.1,10,20,10,1.9,0,3.8-.2,5.6-.7Z"/>
  <path class="st1" d="M140.6,478.3c-1.1-.6-2.3-1.2-3.4-1.8-8.1-4-17.2-7.1-25.3-4.4-2.1.7-4.1,1.8-6,3.2-3.9,2.9-7.1,6.9-9.9,11.2-3.5,5.2-6.6,11-10.9,15.8-.9,1-1.8,1.9-2.7,2.8.8-1,1.5-2.1,2.2-3.2,3.4-5.4,5.7-11.3,8.9-17,2.6-4.6,5.8-9.1,10.3-12.4,2.1-1.6,4.5-2.8,7.1-3.6,9.8-2.9,19.3,1.8,26.7,7,1.1.8,2.1,1.5,3.1,2.3Z"/>
  <path class="st1" d="M281.7,730.5c-.5-.8-.9-1.6-1.4-2.3-4.3-6.9-9.7-12.8-15.8-17.7-6.1-4.9-13-9-20.6-11.8-.8-.3-1.7-.6-2.6-.9.9,0,1.8.1,2.7.2,8.2,1,16.2,4.4,22.7,9.7,6.5,5.3,11.6,12.3,14.2,20.1.3.9.6,1.7.8,2.6Z"/>
  <path class="st1" d="M314.5,694c1.9.5,3.8.7,5.7.6,8.4-.2,16.1-4.4,22.2-9.9,6.5-5.9,11.6-13.3,17.2-20.4.9-1.1,1.8-2.2,2.7-3.3,10.6-12.4,24.1-22.2,39-28.4,1.8-.8,3.6-1.5,5.4-2.1-1.7.9-3.5,1.8-5.2,2.7-14,7.8-26.5,18-36.7,30.1-.9,1.1-1.8,2.1-2.7,3.2-5.6,6.9-11,14.4-18.2,20.3-6.7,5.4-15.3,9.2-24,8.5-2-.2-3.9-.6-5.7-1.3Z"/>
  <path class="st1" d="M293.3,680.2c-.4-.8-.9-1.5-1.3-2.3-4-6.7-8.7-12.8-14-18.2-5.3-5.4-11.3-10.2-17.9-14.3-.7-.5-1.5-.9-2.2-1.3.8.2,1.7.5,2.5.7,7.5,2.4,14.5,6.7,20.1,12.5,5.6,5.7,9.9,12.8,12.1,20.4.3.8.5,1.7.7,2.5Z"/>
</svg>