<?xml version="1.0" encoding="UTF-8"?>
<svg id="Layer_1" xmlns="http://www.w3.org/2000/svg" version="1.1" viewBox="0 0 742.9 1212.3">
  <!-- Generator: Adobe Illustrator 30.2.1, SVG Export Plug-In . SVG Version: 2.1.1 Build 1)  -->
  <defs>
    <style>
      .st0 {
        fill: #255791;
      }

      .st1 {
        fill: #ff9c56;
      }
    </style>
  </defs>
  <path class="st1" d="M159.7,831.4c55.1,59.6,151,62.6,228.2,36.5,77.2-26.1,144.2-75.3,218.4-108.8,34.3-15.5,70-27.5,105.7-39.5,27.6-9.3,55.2-18.6,83.9-23.6,80.2-14,163.9,6.9,234.8,46.5,83.1,46.4,154.6,126.6,158.7,220.9,4,93.1-61.6,180.7-147.2,219.7-23.6,10.8-49.2,18.5-75.2,17.7-18.2-.5-35.9-5.1-53.5-9.5-33.8-8.3-67.9-15.7-102.1-22.2-42.3-8-87-14.4-127.6-.2-34.2,12-63.7,38.2-99.8,41.4-49.9,4.4-94.4-40.1-103.2-88.9-8.8-48.8,10.5-98.6,37.6-140.3,71.2-109.8,206.9-181.1,337-159.3,47.2,7.9,93.6,28.3,125.3,63.9,31.7,35.5,46.3,87.5,30.2,132.1-7.5,20.8-21.1,39-36.4,55.1-9.5,9.9-20.2,19.4-33.4,23.5-13.2,4.1-464.3,175.2-464.1-13.8,0-62.3-134-124.2-254.8-138.1-90.8-10.5-170.7-32.9-179.8-48.8-32.2-56.5,3.2-65.3,25.6-105.7,5.2-9.3,34.3-42.6,53.8-53,5.1-2.7,49.8-33.2,63.1-79.1.9-3.2,4.1-17.2,5.4-33.7s-20.6-141.4,2.4-126.6,19.1,16.7,21.6,19.6c41.1,49.3,28.5,103.6,27.2,109.6-16.4,78.2-87.8,85.5-102.5,137.2-10.3,36.4,18.1,63.4,20.8,67.3Z"/>
  <path class="st1" d="M1118.5,146.3c4,93.1-61.6,180.7-147.2,219.7-23.6,10.7-49.2,18.5-75.2,17.7-18.1-.5-35.9-5.1-53.5-9.5-33.8-8.3-67.9-15.7-102.1-22.2-42.3-8-87-14.4-127.6-.2-34.2,12-63.7,38.2-99.8,41.4-49.9,4.4-94.4-40.1-103.2-88.9-8.8-48.8,10.5-98.6,37.5-140.3C518.6,54.2,654.3-17.1,784.4,4.7c47.2,7.9,93.6,28.3,125.3,63.9,31.7,35.5,46.3,87.5,30.2,132.1-7.5,20.8-21.1,39-36.4,55.1-9.5,9.9-20.2,19.4-33.4,23.5-13.2,4.1-29.3,1.6-37.8-9.3"/>
  <path class="st0" d="M1120.3,146.2c-1-21.3-5.3-41.7-12.2-61-.3,2.4,7.9,42.5,8.7,61.2,2,44.4-12.6,88.6-37.2,125.4-26.8,40.1-65.1,72.6-109,92.6-23.4,10.7-48.7,18.3-74.4,17.6-17.9-.5-35.6-5.1-53.2-9.4-33.9-8.3-68-15.7-102.2-22.2-42-7.9-86.8-14.6-128.5,0-34.5,12.2-63.2,38-99.4,41.4-49.9,4.2-93-40.2-101.7-87.6-8.8-49,10.7-98.3,37.2-139.3C519.2,55.5,653.5-16,784.2,5.5c46.7,7.8,93,27.8,125,63.5,25.7,28.8,40.4,68.3,36.1,106.9-1,8.4-2.9,16.8-5.8,24.7-7.5,20.9-21.1,39.1-36.3,55.1-9.4,9.9-20.1,19.4-33.3,23.6-12.9,4-29,1.9-37.7-9.2,8.7,11.1,24.8,13.3,37.8,9.4,13.3-4.1,24-13.6,33.5-23.5,15.3-16,28.9-34.1,36.6-55.1,2.9-8,4.9-16.4,5.9-24.9,4.5-38.9-10.2-78.6-35.9-107.7-32.1-36.1-78.6-56.3-125.6-64.3-131.4-22-266.7,49.5-338.2,159.4-26.8,41.3-46.8,91.1-37.9,141.2,8.8,48.7,52.6,94.3,104.7,90.1,37.6-3.5,66.5-29.7,100.2-41.4,40.7-14.2,84.9-7.6,126.8.3,34.2,6.5,68.2,13.9,102,22.2,17.6,4.3,35.4,9,53.9,9.5,26.5.8,52.2-7.1,75.9-17.8,44.5-20.3,83.2-53.1,110.5-93.9,25-37.3,39.8-82.2,37.8-127.5Z"/>
  <path class="st0" d="M807.9,263.4h0c-7.6-3.7-16-5.6-24.4-6.2-17.7-1.2-35.1,2.7-52.2,5.9-36.4,6.8-73.5,10.1-110.6,9.6-11-.1-22.1-.7-32.1-4.6-9-3.5-16.8-9.9-22.8-17.6-10.2-13.1-16.2-29.2-20.5-45.4-3.4-12.9-6.2-26.6-2.1-39.2,3-9.3,9.6-17.2,16.3-24.7,14.5-16,30.6-31,49.8-40.9,11.8-6.1,24.8-10.1,38.1-11,8.4-.6,16.9.1,25,2.4h0c-8.1-2.5-16.6-3.4-25-3-13.4.6-26.7,4.3-38.8,10.2-19.7,9.7-36.3,24.6-51.1,40.5-6.9,7.4-13.9,15.5-17.3,25.5-4.5,13.6-1.6,27.9,1.7,41,4.3,16.5,10.3,33,21,46.7,6.3,8.1,14.6,14.9,24.3,18.6,10.8,4.2,22.3,4.6,33.4,4.7,37.3.2,74.5-3.5,111-11.1,17.1-3.5,34.3-7.8,51.9-7.1,8.4.4,16.8,2,24.4,5.5Z"/>
  <path class="st0" d="M629.2,257.2c7,.1,14.1,0,21.1-.5,37.9-.3,74.8-19.7,110.9-17.2,21.1,6.7,45.3,15.7,67.5,4.7,2.4-1.3,4.7-2.8,6.8-4.5,17.5-14.6,21.1-40.9,12.2-61-10.5-23.1-33.3-37.5-56.6-44.6-16.8-5.1-34.2-7.1-51.6-8.5-7-.6-14-1.1-21-1.8,7,.9,13.9,1.6,20.9,2.5,17.3,2,34.6,4.4,51,9.8,22.7,7.5,44.6,22,54.3,44,8.2,18.9,4.6,43.7-11.5,57-1.9,1.6-4,2.9-6.2,4.1-20.1,10.2-43.7,2-65-4.5-39.5-2.2-73.7,18-111.9,19.4-7,.6-14,1-21,1.1Z"/>
  <path class="st0" d="M509.5,156.3c-3.5,4.2-6.8,8.5-9.9,13-23.7,34.1-36,76.3-33.8,118.1.4,7.6,1.5,15.3,3.8,22.8,3,9.9,8.9,19.7,18.3,25.1,17.7,10,37.9,3.2,54.8-2.6,19.2-6.8,38.3-13.7,57.4-20.7,5.1-1.9,10.2-3.7,15.3-5.6-5.2,1.7-10.4,3.3-15.5,5-19.4,6.2-38.7,12.5-58.1,18.9-17.1,5.5-36.7,11.3-52.3,2.1-8.4-4.9-13.8-13.8-16.7-23.2-2.2-7-3.2-14.5-3.7-21.9-2.3-41,8.7-82.6,31-117.5,2.9-4.6,6-9,9.3-13.4Z"/>
  <path class="st0" d="M529.5,129.5h0c-.3,3.5-.6,7-1,10.4-2.7,25.2-7.8,50-15.2,74.1-1.8,5.8-3.6,11.6-5,17.6-3.2,13.4-4.7,29.5,4.4,41.6,11.5,15.4,32,16.5,48.9,15.2,3.5-.3,7-.7,10.4-1.2h0c-3.5.3-7,.4-10.4.5-17,.3-36.6-2-46.4-16.2-7.9-11.1-6.5-25.9-3.4-39.1,1.4-5.8,3.1-11.6,4.8-17.4,7.2-24.4,11.4-49.7,12.6-75,.2-3.5.3-7,.3-10.5Z"/>
  <path class="st0" d="M449.1,213.9c-.8,1.4-1.6,2.9-2.3,4.4-6.6,13.4-9.8,28.7-9.2,43.8.5,15.1,4.7,30.1,12.3,43,.8,1.4,1.7,2.8,2.6,4.2-.7-1.5-1.4-3-2-4.5-5.8-13.7-8.9-28.2-9.4-42.9-.5-14.6,1.5-29.4,6.3-43.4.5-1.6,1.1-3.1,1.7-4.7Z"/>
  <path class="st0" d="M490.7,364.6c2.6,0,5.3,0,7.9,0,15.4,0,31.1-.8,46.2-5.5,8-2.5,15.6-6,23-9.6,10-4.9,19.8-10.1,30.3-13.5,11.8-3.8,24.2-5.4,36.7-6.6,2.6-.3,5.2-.5,7.9-.8-2.6,0-5.3,0-7.9,0-12.5.2-25.2,1.1-37.5,4.6-10.9,3.1-21,8.2-31,13.1-7.4,3.6-14.8,7.2-22.4,9.8-14.4,4.9-29.9,6.5-45.2,7.8-2.6.2-5.2.4-7.9.6Z"/>
  <path class="st0" d="M615.4,130h0c-1.3-.4-2.7-.6-4-.7-12.6-1-24.6,7.4-30.8,18.3,0,0,0,0,0,0-6.2,11.1-7.5,23.7-7.8,35.8,0,1.4,0,2.7,0,4.1h0c.2-1.3.5-2.7.7-4,2.2-11.9,4.4-23.9,10.2-34.1,0,0,0,0,0,0,5.7-9.9,15.6-18.4,27.7-19.4,1.3,0,2.7,0,4,0Z"/>
  <path class="st0" d="M1191.1,963.4c-4.6-97.6-78.1-176.5-159.6-222.1-71-39.6-154.8-60.7-235.8-46.5-28.8,5.1-56.5,14.4-84,23.7-35.6,12-71.4,24.1-105.7,39.6-74.4,33.6-140.9,82.8-218.2,109-75.1,25.2-170.2,24.9-227.6-36.1-13.6-14.7-24.7-33.7-23.6-54.2,3-39.7,42.5-59.9,68.9-85.3,2.9-2.7,5.8-5.5,8.5-8.5,48.3-52.3,37.3-145.5-21.3-185.4,58.5,40.1,69.1,133.1,20.9,185-2.7,2.9-5.6,5.7-8.5,8.4-26.3,25.3-66.1,45.2-69.4,85.7-1.2,20.9,10,40.1,23.7,55,57.7,61.7,153.4,62.1,228.9,37,77.7-26.2,144.5-75.3,218.6-108.6,34.3-15.4,69.9-27.4,105.6-39.4,27.5-9.2,55.2-18.5,83.7-23.5,80.2-13.9,163.4,7.1,233.9,46.5,80.9,45.4,153.4,123.8,157.8,219.7,3.8,94-62.6,180-146.3,218-23.4,10.7-48.7,18.3-74.4,17.5-17.9-.5-35.5-5.1-53.2-9.4-33.9-8.3-68-15.8-102.2-22.2-1.6-.3-3.2-.6-4.9-.9-.8,1-1.6,2.1-2.3,3.1,2.2.4,4.4.8,6.6,1.2,34.2,6.5,68.2,13.9,102,22.2,17.6,4.3,35.4,9,53.9,9.5,26.5.8,52.2-7.1,75.9-17.9,84.7-38.6,152-125.6,148.1-221.3Z"/>
  <path class="st0" d="M769.7,1223.7c3.8-5.6,7.8-11.1,12.1-16.4,6.7-13.2,14.1-25.9,22.8-37.7-.6-.1-1.2-.2-1.7-.3-13.2,16.7-23.7,35.1-33.1,54.4Z"/>
  <path class="st0" d="M805.3,1166.2c.5,0,1.1.2,1.6.3,7-9.1,14.8-17.7,23.6-25.5-9.4,7.7-17.7,16.2-25.1,25.2Z"/>
  <path class="st0" d="M726.9,1159.1c-14.8.8-29.6,3.3-43.7,8.2-34.6,12.1-63.3,38-99.4,41.3-49.8,4.2-92.8-40.1-101.3-87.4-8.8-48.9,10.8-98.1,37.3-139.1,70.8-109,205-180.3,335.3-158.7,46.6,7.8,92.7,27.8,124.5,63.3,31,34.7,46.1,86.2,30,130.8-7.5,20.7-20.9,38.7-36.1,54.7-9.4,9.8-19.9,19.2-32.8,23.2-49.5,5.9-84.3,22.6-110.2,45.6,26.4-21.7,61.5-37.5,110.9-43.3,13.6-4.3,24.4-13.9,33.9-23.8,15.4-16,29.1-34.3,36.8-55.5,16.5-45.7,1.2-98.1-30.4-133.5-32.3-36.2-79-56.4-126.1-64.4-131.8-21.9-267.1,49.9-338.7,159.9-26.8,41.3-46.8,91.3-37.8,141.5,8.9,48.8,52.8,94.5,105,90.3,37.7-3.6,66.5-29.7,100.3-41.5,13.7-4.8,28.2-7.3,42.7-8,25.3-1.3,50.7,2.2,75.7,6.8.8-1,1.7-2.1,2.5-3.1-25.8-4.7-52-8.5-78.4-7.2Z"/>
  <path class="st0" d="M116.3,880.3c-5.3-1.7-10.4-3.8-15.4-6.1-15.1-7.2-29.3-18.4-35.4-34-10.3-27,5.5-56.2,25.1-75.4,3-3,6.2-5.8,9.5-8.6,18.5-15.7,39.7-28.7,56.5-47,17.3-19,28.6-43.1,32.3-68.3.8-5.5,1.2-11,1.3-16.6-.3,5.5-1,11-2,16.5-4.6,24.9-16.5,48.2-33.7,66.5-16.7,17.6-37.9,30.3-56.7,46.3-3.3,2.8-6.5,5.7-9.7,8.8-20.1,19.8-36.3,50.4-24.7,78.7,6.8,16.3,21.8,27.1,37.2,33.8,5.1,2.2,10.4,4,15.7,5.5Z"/>
  <path class="st0" d="M100.8,830.8c.8,1.1,1.6,2.2,2.4,3.3,7.4,9.9,16.6,18.4,27.1,25,10.4,6.7,22.1,11.4,34.1,14,1.3.3,2.7.5,4,.8-1.3-.5-2.6-.9-3.8-1.4-11.4-4.3-22.3-9.8-32.4-16.3-10.2-6.5-19.7-14-28.5-22.5-1-1-1.9-1.9-2.9-2.9Z"/>
  <path class="st0" d="M38.7,830.5c-2.4,3.2-4.4,6.7-5.9,10.5-7.4,18-4.4,40.3,8.8,55.3,11.5,13.1,28.1,19.6,44,24.4.6.2,1.1.3,1.7.5,34.1,10.1,69.4,15.3,104.5,19.6,4,.5,7.9,1,11.9,1.4-3.9-.7-7.9-1.4-11.8-2.1-34.9-6.1-69.8-12.2-103.6-22.3-.6-.2-1.1-.3-1.7-.5-15.8-4.8-31.8-10.9-42.9-23-12.7-13.8-16.6-35.1-10.3-53.2,1.3-3.8,3.1-7.4,5.3-10.7Z"/>
  <path class="st0" d="M878.8,1080.6h0c-7.6-3.7-16-5.6-24.4-6.2-17.7-1.2-35.1,2.7-52.2,5.9-36.4,6.8-73.5,10.1-110.6,9.6-11-.1-22.1-.7-32.1-4.6-9-3.5-16.8-9.9-22.8-17.6-10.2-13.1-16.2-29.2-20.5-45.4-3.4-12.9-6.1-26.6-2.1-39.2,3-9.3,9.6-17.2,16.3-24.7,14.5-16,30.6-31,49.8-40.9,11.8-6.1,24.8-10.1,38.1-11,8.4-.6,16.8.1,25,2.4h0c-8.1-2.5-16.6-3.4-25-3-13.4.6-26.7,4.3-38.8,10.2-19.7,9.7-36.3,24.6-51.1,40.5-6.9,7.4-13.9,15.5-17.2,25.5-4.5,13.6-1.7,27.9,1.7,41,4.3,16.5,10.3,33,21,46.7,6.3,8.1,14.6,14.9,24.3,18.6,10.8,4.2,22.3,4.6,33.4,4.7,37.3.2,74.5-3.5,110.9-11.1,17.2-3.5,34.3-7.8,51.9-7.1,8.4.4,16.8,2,24.4,5.5Z"/>
  <path class="st0" d="M712,872.4h0c1.7-.8,3.5-1.5,5.3-2.2,15.9-6.2,32.8-9.2,49.7-9.4,16.9-.2,33.8,2.6,49.9,8.4,1.8.7,3.6,1.3,5.3,2.1-1.7-.9-3.3-1.8-5.1-2.7-15.4-7.7-32.8-11.5-50.2-11.3-17.4.2-34.7,4.3-50,12.3-1.7.9-3.4,1.8-5,2.8Z"/>
  <path class="st0" d="M309.6,940c4.6,3.2,9.7,5.8,15.1,7.7,13.7,4.9,28.7,5.6,43.1,3.2,20.1-3.3,38.7-12.2,56.2-21.9,14.2-7.9,28.1-16.6,41.7-25.6,42.4-28.1,82.6-59.4,128.1-82.1,5-2.5,10.1-4.9,15.3-7.2-5.2,2.1-10.4,4.3-15.6,6.6-46.4,21.1-87.5,51.8-129.7,79.8-13.5,9-27.2,17.7-41.3,25.7-17.3,9.9-35.4,18.9-55,22.7-14,2.7-28.8,2.5-42.5-1.8-5.3-1.7-10.5-4.1-15.3-7.1Z"/>
  <path class="st0" d="M535,894.8c2.3-1.9,4.6-3.7,7-5.4,13.3-9.9,27.6-18.4,41.8-27,8.1-4.9,16.2-9.9,24.2-14.9.4-.3.9-.5,1.3-.8,22.4-13.9,45.4-28.5,72.1-31.4,2.9-.3,5.9-.5,8.8-.5h0c-2.9-.2-5.9-.3-8.9-.2-27.1,1.1-51.5,15.2-73.9,29.1-.4.3-.9.5-1.3.8-8,5-16,10.1-24,15.3-14,9-27.9,18.2-40.6,29.1-2.2,1.9-4.4,3.9-6.6,6Z"/>
  <path class="st0" d="M232.4,907.3c3.1-2.6,6.6-4.8,10.3-6.4,14.3-6.1,30.5-5,45.4-1.7,19,4.2,37.7,11.9,58,11.5,1.4,0,2.8-.1,4.2-.2,38.4-3.5,65.9-31.9,98.1-48.3,3.6-1.9,7.3-3.6,11-5.1-3.8,1.3-7.6,2.9-11.3,4.5-33.2,14.9-61.6,42.3-98.1,45.4-1.3.1-2.6.2-4,.2-19.3.5-38-6.7-57.4-10.5-15.3-2.9-32-3.4-46.2,3.6-3.7,1.8-7.1,4.2-10,7Z"/>
  <path class="st0" d="M139.8,898.3h0c1,0,2,0,2.9,0,8.8.2,17.4.6,26,1.2,8.6.5,17.2,1.2,26,2.1,1,0,1.9.2,2.9.3h0c-.9-.3-1.8-.7-2.8-1-8.4-2.8-17.1-4.4-25.9-5-8.8-.6-17.7,0-26.3,1.7-1,.2-1.9.4-2.9.6Z"/>
  <path class="st1" d="M-30.9,1191.4"/>
</svg>