<?xml version="1.0" encoding="UTF-8"?>
<svg id="Layer_1" xmlns="http://www.w3.org/2000/svg" xmlns:xlink="http://www.w3.org/1999/xlink" version="1.1" viewBox="0 0 1654 773">
  <!-- Generator: Adobe Illustrator 30.2.1, SVG Export Plug-In . SVG Version: 2.1.1 Build 1)  -->
  <defs>
    <style>
      .st0 {
        mask: url(#mask);
      }

      .st1 {
        fill: #d9d9d9;
      }

      .st2, .st3 {
        fill: #255791;
      }

      .st3 {
        opacity: 0;
      }
    </style>
    <mask id="mask" x="-696.3" y="-43.4" width="2350.3" height="1197.8" maskUnits="userSpaceOnUse">
      <g id="mask0_1496_8444">
        <rect class="st1" width="1654" height="772.9"/>
      </g>
    </mask>
  </defs>
  <g class="st0">
    <g>
      <path class="st2" d="M-280.5,179.9c-.9,12.5-.7,25,.7,37.4,7.2,69.2,49.5,134.9,112.3,165.2,36.9,19.6,77.3,44.5,119,31.7,17.9-5.4,33.2-17.3,45.5-31.5,57.2-72.2,50.4-187.5,138.1-237.9,10.6-6.6,21.9-12,33.6-16.5-11.7,4.7-22.8,10.4-33.3,17.1C49.1,197,57.9,310.3-.4,385c-12.6,14.5-28.4,26.9-47.1,32.6-43.7,13.3-85-12.8-121.4-32.3-63.7-31.2-105.5-98.4-111.6-167.9-1.1-12.5-1.2-25,0-37.5Z"/>
      <path class="st2" d="M30.3,223.9c-1.4,7.8-3,15.3-4.9,22.8-11.8,51.9-47.1,125.5-112.4,108.6-11.8-3.5-23.1-8.5-33.8-14.4-2.2-1.2-4.5-2.5-6.6-3.8-30.6-18.4-56.3-45.1-73-76.7-15-28.4-22.9-60.3-23-92.3,0-7.8.5-15.5,1.5-23.2h0c-.8,7.7-1.1,15.5-.9,23.2.9,31.8,9.5,63.3,24.6,91,16.9,30.9,42.4,56.9,72.5,75,2.2,1.3,4.3,2.6,6.5,3.8,10.5,5.8,21.6,10.7,33.1,14.2,61.2,16.7,97.5-53.7,110.8-105.5,2-7.4,3.9-14.9,5.5-22.6Z"/>
      <path class="st2" d="M18.8,205.4h0c-2,6.1-4.2,11.8-6.9,17.4-21.2,54.9-98.5,71-143.1,33.3-14.5-11.3-26.1-27.2-30-45.5-9.4-37,20-84.9,61-76.5,6.2.9,12.2,2.5,18.1,4.8-5.9-2-12-3.5-18.1-4.1-40.6-6.7-66.9,39.9-57.8,75.2,3.9,17.4,15,32.5,29,43.4,43,36.1,117.1,22.8,140.3-30.8,2.9-5.5,5.3-11.1,7.5-17.1Z"/>
      <path class="st2" d="M293.7-34.1c3,28.3,2.1,58.5-12.5,83.7-3.9,7.1-8.6,13.8-13.1,20.5-31.7,39.8-76.8,65-118.3,93-65.4,40.3-97.4,115.4-113.6,188.1-6.3,27.5-15,54.2-26,80.2-10.5,25.3-25.3,53.1-11.3,78.8,20.2,45.4,88.9,78.4,65.1,137.4-6.2,14.2-18.2,25.4-32.1,31.7-41.6,17.8-87.6,10-130,1.8-46.1-9.7-88.5-30.7-133.4-42.7-49.2-13.2-100.6-15.5-151.5-16.1-72.1-.8-147.5,2.1-212.4,36.2-38.5,20.5-70.8,53.5-88.3,93.7-11.4,26.2-15.6,55.9-9.2,84h0c-6.6-28-2.6-57.9,8.6-84.2,17.3-40.5,49.5-73.9,88.2-94.8,65.1-34.7,140.9-38,213.2-37.5,51,.4,102.6,2.5,152.3,15.7,45.4,12.1,87.8,32.9,133.3,42.4,42.1,8.2,87.9,15.5,127.8-1.6,13.3-6.1,24.5-16.6,30.4-30,23-54.7-43.3-87.7-64.9-134.6-14.7-27.1,1.1-56.6,11.5-81.4,11.1-25.8,19.8-52.2,26.1-79.6,16.5-72.9,49.2-148.7,115.4-188.9,41.6-27.7,87-52.8,118.6-92,4.6-6.7,9.3-13.3,13.2-20.3,14.7-24.9,15.9-55.1,13.1-83.4Z"/>
      <path class="st2" d="M34.3,289.9c-1.4,3.8-2.8,7.6-4.3,11.3-13.4,32.8-37.6,66.3-74.8,74.2-5.3,1.1-10.8,1.7-16.2,1.7-30.5-.2-63.3-1.2-89.9-17.9-3.4-2.2-6.6-4.6-9.7-7.2h0c3.2,2.5,6.5,4.7,10,6.6,27.2,15.1,59.1,15.1,89.6,15,5.2,0,10.4-.6,15.5-1.7,35.4-7.5,59.8-39,75-71.1,1.7-3.6,3.3-7.2,4.9-11Z"/>
      <path class="st2" d="M-75.2,642.4c8.2,7.5,17,14,26.6,19.1,24.6,14.1,58.7,14.6,79.1-6.2,9.9-9.7,16.3-24.5,12.3-37.8-4.1-13.6-18.4-20.6-32.2-22.7-20.4-3.4-41-7.9-59.3-18.3-18.9-10.2-29.9-29.1-44.8-42.6-2.4-2.2-4.8-4.2-7.4-6.2h0c-30-25.5-66.1-43.8-104.3-53.1-31.8-7.7-69.2-8.6-95.3,13.4-16.4,14.2-22.6,38.9-16.1,59.8,3.3,10.3,10.8,19.6,21,23.7-10.3-3.9-18.2-13.1-21.7-23.5-7-21-1.3-46.3,15.6-61.4,26.5-23,64.8-22.4,97.2-14.9,38.8,9.1,75.4,27.5,105.9,53.3h0c2.6,2,5.1,4.1,7.6,6.4,15.5,14.1,26.1,32.4,44.2,42.2,17.6,10.1,37.9,14.7,58.1,18.3,14.3,2.3,29.8,9.8,34.2,24.9,4.3,14.8-2.9,30.1-13.3,40.1-21.5,21.3-56.4,19.9-80.8,5.3-9.6-5.4-18.2-12.1-26.3-19.7Z"/>
      <path class="st2" d="M38.8,579.9c-5.2.5-10.2.9-15.2,1-15.1.3-35.5-1.9-41-19.2-4.9-15.3-6.5-32.2-19.9-41.2-11.2-8.3-20.9-18.2-30.2-28.4-17.6-19.4-33.7-40.3-54.8-55.5-15.7-11.2-33.7-18.8-52.2-24.6-4.8-1.5-9.7-2.9-14.6-4.2h0c4.9,1.1,9.9,2.2,14.8,3.5,18.7,5,37.2,12.1,53.4,23.1,22,15,38.5,36,56,55.2,9.2,10.1,18.8,19.9,29.6,28.1,14.4,9.9,15.9,28.5,20.1,43,4.5,16.1,23.7,19,38.9,19.3,5.1.1,10,0,15.2-.3Z"/>
      <path class="st2" d="M393.7,881.4c-6.4,7.5-15.2,12.9-24.7,15.7-32.1,8.8-66.3-3.3-93-21.8-17.5-12.3-36.3-24.2-57.5-27.2-21.2-3.2-42.1,6.2-58.2,20-10.5,8.8-24.6,11.1-37.5,11.1-73.5-5.9-138.9-45.9-193.2-92.8-12.1-11.3-22.5-24.2-34.8-35.2-7.3-6.6-15.3-12.5-24.4-16.5,9.1,3.8,17.3,9.6,24.8,16,12.5,10.8,23.3,23.5,35.4,34.6,54.6,45.7,120.6,84.9,192.1,90.5,12.5,0,25.7-2.2,35.3-10.2,16.5-14.1,38.6-24,60.9-20.4,22.1,3.3,41,15.7,58.4,28.3,26,18.5,59.5,31.1,91.4,23,9.4-2.6,18.3-7.7,24.9-15.1Z"/>
      <path class="st2" d="M1,734.7c-2.8-1.1-5.8-1.5-8.7-1.2-9.8,1.2-17.8,7.8-24.9,14.4-9.1,8.2-21.2,19-35.5,14.2-4.2-1.5-7.5-4.4-10.3-7.4-1.5-1.6-2.9-3.2-4.2-4.7-16.1-18.5-34-35.5-53.4-50.6-2.3-1.8-4.7-3.6-7.1-5.4,2.5,1.6,5,3.2,7.5,4.9,20.5,13.8,39.3,30.2,55.7,48.9,1.4,1.6,2.7,3.1,4.1,4.6,2.7,2.8,5.6,5.3,9,6.6,11.5,4.3,23.4-4.8,32.8-12.7,7.5-6.3,16.2-12.7,26.4-13.2,3,0,6.1.5,8.7,1.9Z"/>
      <path class="st2" d="M407.4,184h0c3.5-12.8-3.9-26.2-14.1-33.6-4-2.9-8.4-5.1-13-6.8-7.7-2.8-15.9-4.2-24.1-5-76-7.4-148.7,30.4-204.1,79.9-57.1,51.2-102.3,118.7-116,194.8-1.5,8.6-2.6,17.2-3.3,25.9-6.6,84.6,34.4,175.1,110.9,215.6,58.7,31.1,130.5,29.3,192.4,7.1,16.8-6,33.1-13.6,48.6-22.6-15.3,9.2-31.5,17-48.3,23.2-61.8,23-134,25.7-193.8-5.5-77.9-40.5-119.9-132.2-113.2-218.1.7-8.8,1.8-17.6,3.4-26.3,13.9-77,59.8-145.1,117.6-196.3,56.1-49.5,129.7-87,206.1-78.7,8.2.9,16.5,2.4,24.2,5.3,4.6,1.8,9.1,4.1,13.1,7,10.3,7.7,17.5,21.3,13.9,34Z"/>
      <path class="st2" d="M331.1,600.3c-5.3,2.2-10.7,4.2-16.1,5.9-30.7,9.6-64,11.2-95.6,4.1-14-3.1-27.5-7.9-40.5-13.8-4.8-2.2-9.5-4.6-14.2-7.1-23.1-12.7-44-30-59.1-51.8-14.5-21-23.2-46.3-23-71.8,0-5.7.6-11.5,1.5-17.1-.8,5.7-1,11.4-.9,17.1.7,25.3,10,49.8,24.6,70.2,15.2,21.1,35.8,37.8,58.5,50.3,4.6,2.5,9.2,4.9,13.9,7.1,12.8,5.9,26.1,10.7,39.7,13.9,31,7.4,63.8,6.8,94.7-1.7,5.5-1.5,11-3.3,16.3-5.3Z"/>
      <path class="st2" d="M505.7,60.6c-6.4,2.9-12.6,6.1-18.4,10-10.8,7.1-20.5,16.8-24.2,29.2-2.3,7.5-2.3,15.4-2.2,23.3-.3,7.5,1.7,17.5-6.5,23-4.8,2.8-10.4,2-15.1.7-12.5-3.1-13.2-18.4-22.2-21.9-16.9-6.9-35.5,0-54.1,1.2-4.2.3-8.5.3-12.8-.1-25.3-2.9-46.7-26.1-45.7-51.7.4-9.5,3.6-18.5,6.7-27.1,8.9-23.6,19.3-46.4,26.7-70.4,2.1-6.7,4.1-13.3,5.9-20.1-1.6,6.8-3.3,13.6-5.2,20.3-6.7,24.2-16.6,47.5-25,71-2.9,8.7-5.8,17.5-6.1,26.4-.7,23.8,19.8,45.6,43.2,48.1,4,.4,8.1.4,12.2.1,17.9-1.1,37.1-8.3,55.6-.7,11.4,5.5,11.3,19.8,21.7,22.1,4.4,1.4,9.2,1.9,12.9-.2,6.3-3.7,5.4-13.1,5.6-20.7,0-7.9.2-16.1,2.8-23.8,4.2-12.8,14.5-22.3,25.5-29.2,5.9-3.7,12.3-6.8,18.7-9.4Z"/>
      <path class="st2" d="M150.2,468.4c-4-3.6-7.7-7.5-11.1-11.6-31.6-37.1-38-92.5-19.6-137.7,5.1-12.8,12.1-24.8,20.6-35.5,22-27.6,52.9-45.7,84.2-60.2,4.9-2.3,9.8-4.4,14.7-6.6-4.8,2.3-9.6,4.7-14.4,7.2-30.7,15.7-60.8,34.4-81.9,61.6-8.3,10.6-15,22.4-20,34.8-17.9,44-13,97.8,16.9,135.9,3.3,4.2,6.8,8.2,10.6,12Z"/>
      <path class="st2" d="M757.6,482.9h0c5.7,1.1,11.5,2.2,17.2,3.3h.2s-.1.1-.1.1c-13,13-29.9,21.4-47.5,26.5-50.9,14.7-107.6,7.6-153.5,35.8-55.1,35.3-63.8,107.1-67.3,168-3.6,61.2-7.6,132.9-59.7,174.7-23,18.1-51.5,26.5-79.3,32.5-9.2,2-18.5,3.7-27.9,5.2-41.9,6.6-85.2,7.7-127-.9-46.1-9.5-88.5-30-133.4-41.8-66.7-19.7-148.7-21.8-196.4,36.4-36.3,44.9-28.3,109.4-19.2,163.9,5,23.4,11.3,47.3,24.5,67.6-13.4-20.1-20-44-25.2-67.4-9.5-54.7-18.5-118.8,18.5-165.5,47.4-59,131.8-57.6,198.5-38,45.3,11.7,87.8,32.1,133.3,41.4,41.3,8.4,84.2,7.3,125.8.7,9.3-1.5,18.5-3.2,27.7-5.2,27.7-5.9,55.6-14.2,77.9-31.7,50.7-40.3,55.2-111,59-172.2,3.8-61.1,12.7-133.7,69.1-169.5,46.9-28.3,103.5-20.5,154.3-34.8,17.5-4.9,34.5-13.1,47.5-26h0c-5.7-1-11.5-2.2-17.2-3.3Z"/>
      <path class="st2" d="M797.8,506c2-.7,3.9-1.5,5.9-2.2,17.4-7.1,33.3-17.1,47.2-29.5,13.9-12.3,25.7-27,34.6-43.5,1-1.8,1.9-3.7,2.8-5.6-.7,2-1.4,3.9-2.2,5.9-7.2,17.5-18.7,33.2-32.9,45.9-14.2,12.6-31.2,22.2-49.3,27.5-2,.6-4,1.1-6.1,1.6Z"/>
      <path class="st2" d="M349.3,623.8c-2.3,2.3-4.7,4.5-7.3,6.4-21.8,16.4-50,19.9-76.2,22.4-2.4.2-4.9.4-7.3.6-28.7,2.3-59.8,2.9-85.9-11.2-2.8-1.6-5.6-3.3-8.2-5.2,2.8,1.7,5.6,3.2,8.5,4.6,26.7,12.2,56.6,10.6,85.3,8.3,2.4-.2,4.8-.4,7.3-.6,26.3-2.4,53.7-4.7,76.2-19.4,2.7-1.8,5.2-3.7,7.7-5.9Z"/>
      <path class="st2" d="M394.6,553.2c-2.6,3.6-6.4,6.3-10.5,8.2-7.5,3.3-15.8,4.2-23.9,4.7-21.8,1.2-43.9,1.3-65.5-3.6-10.1-2.3-20-5.4-29.6-9.2-37.7-15.1-70.1-40.5-98.9-68.4-3.2-3.1-6.4-6.3-9.5-9.5,3.3,3,6.6,6,9.9,9,30,26.5,62.7,50.8,99.7,65.7,9.4,3.8,19.1,6.9,29,9.2,21,5,43,5.5,64.7,5.1,8-.2,16.2-.7,23.7-3.6,4.1-1.6,8-4.1,10.8-7.6Z"/>
      <path class="st2" d="M365.4,190.1h0c-1.8-.2-3.7-.4-5.5-.5-16.6-1.2-33.2,1-48.9,5.9-15.7,5-30.5,12.7-43.3,23.3-1.4,1.2-2.8,2.4-4.2,3.6h0c1.2-1.4,2.5-2.8,3.8-4.1,11.7-12.1,26.6-21,42.7-26.1,16.1-5.1,33.5-6.3,50-3.3,1.8.3,3.6.7,5.5,1.2Z"/>
      <path class="st2" d="M295.1,161.4c-1.9.5-3.7,1.1-5.6,1.7-16.7,5.3-32.9,12.1-48.2,20.3-15.4,8.2-30,17.8-43.6,28.8-1.5,1.2-3,2.5-4.5,3.7,1.3-1.4,2.7-2.8,4.1-4.2,12.4-12.5,26.8-23.1,42.4-31.4,15.6-8.3,32.4-14.4,49.7-17.8,1.9-.4,3.8-.7,5.8-1.1Z"/>
      <path class="st2" d="M651.3,497.3c-16.3,3.6-32.6,7.1-48.9,10.6-8.3,1.8-16.7,3.6-25,5.4-18,3.9-36.3,7.9-52.7,16.3-29.5,15.1-50.2,43.5-61.2,74.3-11,30.8-13,64-12.6,96.6.3,32.2,3.1,67.6-16,96.3-10.4,15.4-25.9,26.3-42.4,34-5.8,2.7-11.8,5-18,6.8-33.2,10.1-70.6,8.3-101.4-8.4-24.2-13.2-42.4-34-63-51.1-30.2-25-66.2-42.9-104.4-52-31.9-7.5-69.2-8.5-95.6,13.2-12,10-18.4,25.8-18.6,41.4-.5,16.4,7.7,34.2,23.7,40.3-16.1-5.9-24.7-23.8-24.4-40.3,0-15.8,6.3-31.9,18.5-42.3,26.7-22.4,64.6-21.7,96.9-14.4,38.6,8.8,75.2,26.7,105.8,51.8,20.9,17.2,39.1,37.7,62.7,50.4,29.9,16.1,66.4,17.8,98.8,8,6-1.8,11.9-4,17.5-6.7,16.1-7.4,31.1-18.1,41-32.7,18.3-27.2,16-62,15.7-94.3-.3-32.8,1.9-66.3,13.3-97.5,11.4-31.2,32.7-59.9,62.8-74.9,16.8-8.4,35.2-12.1,53.3-15.8,8.4-1.7,16.7-3.4,25.1-5.1,16.3-3.3,32.7-6.7,49-10Z"/>
      <path class="st2" d="M526.1,565.3c-2.1,1.6-4.2,3.4-6.3,5.1-17.7,15.3-31.4,35.1-39.2,56.9-.3.8-.5,1.5-.8,2.3-7.7,22.8-9.2,47.3-10.5,71.5-.1,2.7-.3,5.4-.4,8.1,0-2.7-.2-5.4-.2-8.1-.6-24.2,0-49.2,7.8-72.6.3-.8.5-1.6.8-2.4,8.1-22.5,23.1-42.2,42.1-56.2,2.2-1.6,4.4-3.1,6.7-4.6Z"/>
      <path class="st2" d="M229.1,837.5h0c-3.8-1.4-7.4-3.5-10.6-6.1-6-4.7-11-10.6-16.1-16.1-19.7-21.1-43.9-37.6-70.5-48.4-8-3.3-16.1-6-24.4-8.2-15.3-4-31.4-6.3-46.9-3.3-11.4,2.3-22.4,7.6-30.5,16.1-2.8,2.9-5.1,6.2-7,9.9,1.6-3.7,3.8-7.2,6.5-10.3,7.8-9.1,18.8-15.1,30.5-17.8,15.9-3.7,32.6-1.8,48.2,2.2,8.5,2.1,16.8,4.9,24.9,8.2,27,11.1,51.5,28.5,70.4,50.5,5,5.8,9.6,11.8,15.3,16.8,3,2.6,6.4,4.9,10.1,6.6Z"/>
      <path class="st2" d="M430.5,624c-3.7,3-7.2,6.3-10.4,9.7-12.5,13.3-21.6,29.6-26,47.1-3.1,12.4-4,25.4-7.1,38.2-2.9,11.4-7.8,23-17,31.1-1.1.9-2.2,1.8-3.4,2.7-15,10.4-35,9.2-50.6,1.7-9.6-4.7-17.7-11.4-26.4-16.8-11.8-7.4-24.9-12.8-38.6-15.8-4.6-1-9.4-1.8-14.1-2.3,4.8.2,9.5.8,14.2,1.6,13.9,2.4,27.4,7.4,39.6,14.6,9,5.3,17.2,11.8,26.5,16,15,6.9,33.8,7.6,47.3-1.9,1.1-.8,2.1-1.6,3.1-2.4,8.4-7.4,13.3-18.3,16.2-29.3,3.2-12.4,4.3-25.4,7.8-38.1,5-17.8,14.9-34.1,28-46.9,3.4-3.3,7.1-6.4,10.9-9.3Z"/>
      <path class="st2" d="M324.7,802.6c-4.1.4-8.3.7-12.4.8-6.9,0-14-.6-20.7-2.6-8-2.4-15.2-6.7-21.9-11.4-18.4-13.1-33-30.4-48-46.7-11.5-12.6-23.4-25-37.4-34.7-16.4-11.5-35.4-19.1-54.7-24.9-4-1.2-8-2.3-12-3.4,4.1.8,8.1,1.7,12.2,2.7,19.6,4.8,39.1,11.8,56.1,23.1,14.5,9.6,26.7,22,38.3,34.7,15,16.5,29.3,33.7,46.9,47.1,6.4,4.9,13.3,9.2,20.9,11.9,6.4,2.2,13.3,3.2,20.2,3.5,4.1.2,8.3,0,12.4-.1Z"/>
      <path class="st2" d="M482.3,530c-1.9.2-3.9.5-5.8.8-13.8,2.4-26.9,8-38,16.2-2.8,2-5.4,4.3-8,6.6-6,5.2-11.7,10.8-18.3,15.6-7.9,5.7-17.1,10.3-26.9,10.6-2,0-4,0-5.9-.3,2,0,3.9,0,5.8-.3,9.5-1.4,17.9-6.4,25.2-12.3,6.1-4.9,11.7-10.6,17.8-16,2.7-2.3,5.4-4.6,8.4-6.7,11.8-8.3,25.8-13.2,40-14.2,2-.1,3.9-.2,5.9-.2Z"/>
      <path class="st2" d="M670.2,545.6c.7,4,.9,8.1.9,12.2-.5,25.5-13.6,49.1-29.4,68.5-7.4,9-15.5,17.5-23.6,25.8-12.4,12.7-25.1,25.3-35.7,39.4-11.3,15-20.2,31.8-26.3,49.6-1.3,3.9-2.5,7.7-3.6,11.7.8-4,1.8-8,2.9-11.9,5.2-18.2,13.6-35.6,24.7-51.1,10.4-14.6,23-27.5,35.5-40.2,8.1-8.3,16.2-16.6,23.6-25.4,15.9-18.9,29.4-41.3,31.2-66.5.3-4.1.2-8.1-.2-12.2Z"/>
      <path class="st2" d="M641,557.4c-.9,2.2-2,4.3-3.3,6.4-5.6,9.1-14,16.2-22.9,22.1-9.1,6-18.7,10.9-27.7,16.6-1.9,1.2-3.7,2.4-5.5,3.7-15.4,10.8-28.1,25.4-36.7,42.5-1.1,2.1-2.1,4.3-3,6.5.7-2.3,1.5-4.5,2.4-6.7,7-17.9,19.5-33.7,35.3-45,1.9-1.3,3.7-2.6,5.7-3.8,9.2-5.8,19-10.5,28.1-16,8.9-5.4,17.5-11.7,23.8-20.1,1.4-1.9,2.7-3.9,3.8-6Z"/>
      <path class="st2" d="M531.6,700.3c-2.4,5.5-4.2,11.2-5.5,17.1-4.8,21.8-3.2,44.2-4.6,66.6-1.4,21.4-5.6,42.5-9.9,63.4-2.1,10.2-4.2,20.4-7.3,30.5-2.5,8.2-5.7,16.2-9.9,23.8-11.2,20.1-29,35.2-47.6,47.8-12,8.2-25,15.7-39.4,19-8.5,1.9-17.3,2.2-25.8.4-5.9-1.3-11.6-3.6-16.5-7.1,5,3.3,10.8,5.4,16.6,6.4,8.4,1.5,17.1.9,25.3-1.2,14-3.6,26.5-11.3,38.3-19.6,18.1-12.9,35.3-28,46.1-47.4,4-7.3,7.1-15.1,9.5-23.1,3-9.8,5.2-20,7.3-30.1,4.4-20.9,8.9-41.7,10.7-62.9,1.9-22.1.9-44.8,6.5-66.6,1.5-5.8,3.5-11.5,6.1-16.9Z"/>
      <path class="st2" d="M597.1,632.4c-.7,1.2-1.5,2.5-2.4,3.6-7.7,10.2-19.4,16-28.8,23.6-.4.3-.7.6-1.1.9-9.7,8.1-17.5,18.4-22.7,30.2-.6,1.3-1.1,2.6-1.6,4,.3-1.4.6-2.8,1-4.2,3.4-12.6,10.9-24.2,21.1-32.6.4-.3.8-.6,1.1-.9,10-7.9,21.6-12.6,30.5-21.3,1-1,2-2.1,2.9-3.2Z"/>
      <path class="st2" d="M769.4,514.6c-.2-.4.1-.8.5-.9.4-.2.9-.2,1.2.2.6.7.3,1.7-.2,2.3,0,0-.1.2-.2.3-9.1,9.6-19.1,18.4-29.9,26.1-10.9,7.8-22.5,14.5-34.7,20-1.3.6-2.7,1.2-4.1,1.8h0c1.3-.8,2.5-1.6,3.8-2.4,11.2-7.2,22.2-14.6,32.9-22.3,10.7-7.6,21.1-15.6,31.5-23.8,0,0,.1-.1.2-.2.4-.4.7-1.1.4-1.6-.3-.5-1.7-.3-1.4.5Z"/>
      <path class="st3" d="M1178.6,409.6c.4,2.1,1,4.1,1.7,6.1,3.7,11,10.2,20.8,13.8,31.4,2.4,7,3.5,14.3,3.7,21.7.4,18.7-4.8,37.2-10.1,55.4-.6,2-1.2,4.1-1.8,6.1.8-1.9,1.6-3.9,2.4-5.9,7.1-17.6,13.4-36.2,13-55.7-.2-7.7-1.6-15.4-4.3-22.6-4.2-11-11.3-20.2-16-30.6-.9-1.9-1.7-3.9-2.3-5.9Z"/>
      <path class="st3" d="M1150.3,583.2h0c-4.8,3.2-9.5,6.7-13.8,10.6-15.6,14-29.1,35.1-23.8,57.4,3.6,15.2,15,27.1,27.5,35.5,10.2,6.9,21.8,12.1,34.2,13.6,3.7.5,7.4.6,11.1.4,17.8-.8,34.4-7.7,50.2-14.4,32-13.6,63.9-27.3,95.8-41.3,5.3-2.3,10.6-4.6,15.9-7h0c-5.4,2.1-10.8,4.2-16.1,6.4-32.3,12.8-64.6,25.8-96.8,38.9-16,6.5-32.2,13.1-49.2,13.8-3.5.1-7,0-10.5-.4-11.7-1.4-22.8-6.3-32.8-12.9-12.2-8-23.1-19.2-26.8-33.4-5.5-20.7,6.8-41.8,21.8-56.3,4.1-4,8.6-7.7,13.3-11.1Z"/>
      <path class="st3" d="M1233.9,489.2c3.7,3.7,4.6,9.2,3.9,14.2-.6,4.8-2.3,9.5-4.3,13.9-9.5,20.9-21.1,40.7-34.7,59.1-6.4,9-15.5,20.8-9.3,33.5,3.7,6.9,11.8,9.7,18.9,9.4,3.4-.1,6.9-.9,10-2.3,9.8-4.5,16.2-13.1,22.2-21,11.4-15.2,22.8-30.5,36.9-43.1,10.3-9.2,22.2-16.9,35.3-21.5,4.8-1.7,9.8-2.9,14.9-3.6-5.1.4-10.2,1.4-15.1,2.9-13.5,4-25.8,11.5-36.5,20.5-14.7,12.4-26.6,27.6-38.1,42.7-6,7.9-12.3,15.9-21,19.8-2.7,1.2-5.7,1.9-8.7,2-6.2.2-12.9-2.2-15.7-7.6-5.2-9.7,2.4-21,8.8-30,13.4-18.8,24.7-39.1,33.4-60.4,1.9-4.6,3.4-9.3,3.8-14.3.5-5.1-.7-10.8-4.6-14.3Z"/>
      <path class="st3" d="M1167.3,555.6c.6,2.6,1.2,5.3,1.7,8,3.7,21.4,1.7,43.5-5.9,63.6-1,2.5-1.9,5.1-2.7,7.8-1.9,6.3-3.4,14.7,2.1,20.6,2.4,2.7,5.7,4.1,8.7,5.1,14.5,4.9,30.8,2,42.8-6.6,2.2-1.6,4.3-3.4,6.2-5.4h0c-2,1.8-4.2,3.4-6.5,4.8-12.4,7.6-28.2,9.3-41.5,4.3-2.8-1.1-5.5-2.4-7.3-4.5-4-4.4-3-11.3-1.2-17.4.8-2.5,1.7-5,2.6-7.6,7.7-20.7,8.8-43.8,3.3-64.9-.7-2.6-1.5-5.3-2.3-7.8Z"/>
    </g>
  </g>
</svg>