<svg width="451" height="449" viewBox="0 0 451 449" fill="none" xmlns="http://www.w3.org/2000/svg">
<path d="M205.17 387.49C201.281 397.923 196.516 408.258 189.767 417.234C184.131 424.633 176.477 431.816 166.631 433.117C156.677 434.53 147.368 427.99 142.296 419.904C131.826 403.334 132.602 381.494 141.608 364.428C166.178 314.42 230.056 330.484 269.52 305.165C281.484 297.872 292.916 289.651 302.923 279.936C311.847 271.274 319.595 261.359 325.067 250.247C336.48 227.105 336.947 196.693 320.082 176.394C313.356 168.324 304.298 162.305 296.497 154.637C274.122 132.609 265.646 97.3673 276.945 68.0841C284.141 49.527 299.228 34.5602 317.239 26.6516C327.494 22.1459 338.804 19.9562 349.948 20.7764C338.789 20.1903 327.591 22.6022 317.512 27.2581C299.807 35.4306 285.241 50.4655 278.501 68.6731C267.894 97.4166 276.677 131.625 298.449 152.635C306.049 159.995 315.238 165.956 322.43 174.421C340.459 195.893 339.994 227.6 328.167 251.772C322.515 263.32 314.511 273.566 305.362 282.446C295.1 292.407 283.446 300.753 271.308 308.109C229.565 334.037 167.541 317.671 143.731 365.553C134.873 381.842 133.849 402.957 143.674 419.023C148.447 426.862 157.086 433.113 166.495 431.949C175.835 430.901 183.527 424.065 189.241 416.827C196.096 408.062 201.066 397.838 205.17 387.49Z" fill="white"/>
<path d="M347.043 239.466C349.478 236.488 351.586 233.262 353.348 229.87C359.559 217.909 361.517 203.873 358.621 190.93C354.003 170.518 338.997 154.79 327.579 137.023C325.13 133.224 322.819 129.304 320.801 125.214C314.612 112.595 311.103 96.125 319.687 83.3462C323.67 77.5186 329.723 73.5522 336.115 71.2284C345.137 67.9306 355.135 67.8125 364.162 70.56C367.868 71.6876 371.416 73.3015 374.659 75.3699C371.296 73.5021 367.692 72.1113 363.985 71.2012C354.958 68.9845 345.295 69.6038 336.833 73.0865C330.827 75.541 325.344 79.4818 321.924 84.8293C314.546 96.4264 317.879 111.649 323.891 123.675C325.864 127.602 328.121 131.403 330.521 135.127C341.65 152.521 356.855 168.913 361.022 190.434C363.602 204.083 360.868 218.453 353.93 230.192C351.962 233.522 349.654 236.641 347.043 239.466Z" fill="white"/>
<path d="M342.327 303.174C341.54 300.547 341.07 297.816 340.903 295.057C340.306 284.92 343.623 274.779 348.915 266.096C355.731 254.973 365.444 246.153 374.975 237.741C376.392 236.493 377.791 235.264 379.122 233.997C381.328 231.898 383.349 229.68 384.881 227.2C387.195 223.476 388.446 219.071 389.116 214.568C391.497 198.432 386.06 181.214 374.785 168.871C372.946 166.863 370.95 164.987 368.81 163.275C371.088 164.799 373.245 166.519 375.257 168.404C387.621 179.98 394.43 197.724 392.301 215C391.703 219.794 390.45 224.68 387.827 229.005C386.092 231.871 383.857 234.321 381.536 236.531C380.134 237.866 378.693 239.123 377.27 240.361C367.691 248.714 358.063 257.041 351.018 267.447C345.562 275.56 341.753 285.076 341.568 295.042C341.524 297.758 341.766 300.49 342.327 303.174Z" fill="white"/>
<path d="M242.846 61.6642C236.317 66.3038 229.876 71.0723 223.719 76.1792C212.58 85.4126 202.294 95.8773 194.843 108.221C183.454 127.055 179.189 151.798 189.524 171.469C197.554 187.264 215.583 199.217 215.841 219.919C215.773 222.368 215.738 224.777 214.92 227.428C214.513 228.712 213.646 230.269 212.199 231.142C210.776 232.01 209.369 232.197 208.148 232.37C203.276 232.818 199.009 233.383 194.756 235.107L195.847 233.696C194.983 240.985 193.544 248.223 191.213 255.212C186.152 271.225 174.583 286.238 158.265 292.112C142.092 298.193 124.553 296.681 108.345 292.904C90.0372 288.034 68.1006 291.651 57.1234 308.057C46.0121 323.926 44.1693 344.39 44.9921 363.642C45.3788 371.621 46.3258 379.586 47.6697 387.49C46.0964 379.628 44.9267 371.681 44.3283 363.683C43.0224 344.379 44.2703 323.682 55.4971 306.91C66.5957 289.471 90.1274 285.204 108.995 290.077C140.181 299.146 179.534 287.832 187.893 254.104C190.13 247.398 191.54 240.386 192.4 233.284L192.525 232.25L193.492 231.874C198.046 230.011 203.198 229.358 207.715 228.976C210.066 228.677 211.087 228.252 211.706 226.356C212.309 224.497 212.431 222.157 212.493 219.854C212.67 201.654 195.478 189.401 187.013 172.771C176.354 151.721 181.407 126.299 193.405 107.331C201.257 94.9224 211.892 84.6279 223.302 75.6619C229.609 70.7028 236.185 66.1117 242.846 61.6642Z" fill="white"/>
<path d="M77.6694 438.99C78.2221 433.987 78.7937 428.99 79.4481 424.003C82.0796 394.096 94.6923 363.655 118.884 344.465C130.454 334.352 144.046 327.069 157.689 320.578C163.481 317.822 169.313 315.194 175.101 312.518C209.713 296.285 245.623 276.292 264.017 241.456C266.315 237.003 268.255 232.356 269.794 227.564C268.479 232.422 266.739 237.171 264.614 241.748C247.538 277.706 211.264 299.161 176.556 315.639C170.759 318.361 164.944 321.002 159.193 323.738C145.639 330.185 132.308 337.233 120.964 346.877C96.999 365.44 84.0957 394.198 80.1055 424.103C79.2445 429.052 78.4534 434.018 77.6694 438.99Z" fill="white"/>
<path d="M68.9917 268.513C71.0538 266.529 73.1201 264.55 75.1906 262.575C83.9753 254.198 92.8341 245.903 101.76 237.686C108.469 231.508 115.211 225.351 119.906 217.841C122.193 214.191 124 210.221 125.576 206.13C127.445 201.278 128.997 196.249 130.726 191.222C137.421 171.762 146.664 153.2 158.093 136.196C159.69 133.818 161.331 131.471 163.013 129.156C161.525 131.601 160.073 134.064 158.658 136.546C148.535 154.299 140.253 172.989 133.93 192.298C132.297 197.288 130.771 202.376 128.842 207.388C127.215 211.612 125.289 215.791 122.789 219.672C117.635 227.664 110.488 233.798 103.556 239.713C94.3166 247.579 85.0069 255.363 75.6315 263.073C73.4219 264.89 71.2086 266.703 68.9917 268.513Z" fill="white"/>
<path d="M247.344 170.166C246.133 170.537 244.739 170.284 243.59 169.653C241.671 168.599 240.249 166.876 239.091 165.076C234.049 157.174 231.35 147.725 231.16 138.27C230.902 126.69 234.405 114.999 241.163 105.822C241.911 104.803 242.697 103.817 243.52 102.865C242.887 103.953 242.291 105.054 241.73 106.17C236.688 116.221 234.443 127.261 234.66 138.196C234.852 147.126 236.718 156.043 240.504 164.305C241.338 166.1 242.393 167.862 243.949 169.093C244.885 169.829 246.081 170.3 247.344 170.166Z" fill="white"/>
<path d="M274 268.117C276.127 266.068 278.169 263.934 280.062 261.684C282.157 259.194 284.069 256.56 285.689 253.771C297.516 233.323 292.372 208.496 284.654 187.219C283.601 184.34 282.479 181.485 281.302 178.65C272.471 157.222 261.312 135.192 261.602 111.242C261.653 108.275 261.894 105.316 262.339 102.394C262.126 105.342 262.108 108.294 262.267 111.23C263.668 134.818 275.385 155.704 284.493 177.31C285.713 180.179 286.868 183.081 287.941 186.017C295.848 207.583 300.384 234.106 286.809 254.469C284.967 257.229 282.844 259.772 280.555 262.13C278.487 264.26 276.282 266.242 274 268.117Z" fill="white"/>
<path d="M92.7764 341.444C93.1039 339.464 93.5827 337.501 94.2026 335.576C98.3382 322.71 108.789 311.687 121.994 307.154C126.559 305.584 131.301 304.786 135.981 304.285C143.76 303.456 151.45 303.404 158.874 302.053C168.491 300.194 178.599 295.376 183.107 286.093C183.935 284.302 184.486 282.372 184.716 280.373C184.719 282.385 184.384 284.406 183.724 286.339C180.065 296.481 169.669 302.556 159.475 304.972C151.746 306.732 143.917 306.952 136.354 307.766C131.797 308.252 127.305 308.956 123.029 310.3C110.751 314.163 100.22 323.658 94.8241 335.813C94.0189 337.634 93.3316 339.515 92.7764 341.444Z" fill="white"/>
<path d="M242.906 347.227C243.8 346.144 244.751 345.105 245.75 344.108C254.874 335.082 267.003 329.994 278.348 324.892C289.655 319.775 301.378 314.618 308.57 304.194C309.362 303.044 310.078 301.867 310.744 300.61C310.293 301.959 309.768 303.249 309.145 304.529C303.448 316.287 291.113 323.017 279.777 328.087C268.256 333.274 256.352 337.203 246.183 344.613C245.061 345.438 243.967 346.307 242.906 347.227Z" fill="white"/>
<path d="M310.125 332.277C311.057 332.578 312.005 332.774 312.951 332.868C321.573 333.501 328.785 326.986 331.871 319.843C331.886 319.807 331.901 319.77 331.917 319.732C335.044 312.119 334.82 303.324 334.572 294.595C334.544 293.621 334.516 292.646 334.492 291.669C334.747 292.612 334.995 293.557 335.231 294.505C337.321 302.923 338.703 312.295 335.157 321.055C335.14 321.097 335.122 321.14 335.105 321.182C331.517 329.761 321.762 336.248 312.813 333.518C311.862 333.209 310.959 332.79 310.125 332.277Z" fill="white"/>
<path d="M200.47 27.8819C200.23 29.2438 199.979 30.6038 199.719 31.9617C197.377 44.1836 194.235 56.2418 190.32 68.0435C186.405 79.8453 181.718 91.3907 176.293 102.59C175.69 103.834 175.078 105.075 174.457 106.31C174.862 104.988 175.267 103.667 175.674 102.346C179.336 90.4659 183.103 78.6826 186.998 66.9416C190.893 55.2004 194.915 43.5017 199.077 31.7874C199.54 30.4858 200.004 29.184 200.47 27.8819Z" fill="white"/>
</svg>
