<svg width="1142" height="3605" viewBox="0 0 1142 3605" fill="none" xmlns="http://www.w3.org/2000/svg">
<g clip-path="url(#clip0_1333_7031)">
<path d="M141.632 -198.501C142.849 -175.446 148.688 -152.709 158.17 -131.693C180.901 -80.5328 229.402 -36.1702 287.271 -35.1999C291.059 -35.115 294.835 -35.1992 298.608 -35.4338C358.303 -39.2985 410.483 -78.8395 471.914 -74.8182C525.487 -70.7366 570.423 -30.3145 591.408 17.6418C605.74 50.3708 610.338 86.5905 608.954 121.989C608.292 139.182 606.269 156.295 603.254 173.203C584.464 278.505 526.536 378.86 436.952 438.962C367.134 485.649 279.052 505.078 196.572 489.239C173.886 484.854 151.729 477.739 130.856 467.867C151.828 477.527 174.022 484.417 196.695 488.586C279.12 503.632 366.539 483.593 435.56 436.898C524.142 376.763 581.255 277.079 599.827 172.593C602.805 155.818 604.802 138.861 605.457 121.855C606.825 86.8328 602.377 51.1592 588.444 18.9288C568.088 -28.2097 524.211 -68.2408 471.742 -72.6179C411.458 -77.1487 358.75 -38.0994 298.668 -34.4356C294.867 -34.218 291.063 -34.1516 287.247 -34.2552C228.916 -35.5347 180.508 -80.2886 157.93 -131.585C148.513 -152.664 142.757 -175.441 141.632 -198.501Z" fill="#255791"/>
<path d="M546.916 152.895C546.197 161.472 545.058 170.009 543.514 178.483C529.582 254.894 483.188 324.582 419.151 368.845C395.953 384.88 370.386 397.564 343.44 405.925C315.727 414.526 285.742 419.022 257.038 412.534C237.032 407.972 218.158 397.659 204.605 382.269C198.909 375.781 194.247 368.381 191.069 360.38C194.463 368.291 199.294 375.528 205.1 381.824C218.91 396.753 237.741 406.492 257.453 410.618C285.776 416.483 315.163 411.687 342.499 402.942C369.057 394.442 394.235 381.812 417.162 365.966C480.411 322.194 527.066 254.183 542.862 178.356C544.607 169.942 545.964 161.449 546.916 152.895Z" fill="#255791"/>
<path d="M454.545 378.006C451.312 381.496 447.986 384.902 444.571 388.222C413.837 418.112 376.019 440.862 335.153 454.383C312.709 461.814 289.332 466.47 265.764 468.052C246.576 469.268 226.066 468.228 209.152 458.207C205.053 455.739 201.296 452.723 198.071 449.218C201.464 452.561 205.33 455.373 209.483 457.63C226.585 466.757 246.627 467.064 265.555 465.415C288.86 463.281 311.868 458.404 334.053 451.06C374.439 437.682 412.162 416.158 444.118 387.735C447.668 384.577 451.145 381.333 454.545 378.006Z" fill="#255791"/>
<path d="M405.774 337.759C403.883 339.359 401.958 340.919 399.999 342.44C382.37 356.138 362.09 366.588 340.638 373.188C319.189 379.797 296.543 382.563 274.263 381.147C271.788 380.991 269.318 380.783 266.855 380.523C269.331 380.55 271.805 380.536 274.277 380.482C296.52 379.997 318.507 376.335 339.608 369.842C360.708 363.342 380.946 354.004 399.614 341.898C401.687 340.553 403.741 339.173 405.774 337.759Z" fill="#255791"/>
<path d="M233.007 615.724C233.007 615.724 233.007 615.724 233.007 615.724C237.619 611.055 244.745 610.045 251.073 610.876C257.307 611.642 263.286 613.685 269.104 615.892C298.205 626.99 329.504 634.911 360.388 630.713C380.019 628 399.075 619.811 413.72 606.519C421.798 599.17 428.396 590.17 432.492 580.073C439.045 563.97 439.373 546.041 439.797 528.45C440.23 510.869 440.904 492.508 448.383 476.072C453.13 465.751 460.883 456.703 470.826 451.243C476.491 448.144 482.93 446.382 489.357 446.577C482.927 446.618 476.629 448.592 471.153 451.822C461.548 457.512 454.243 466.604 449.902 476.741C443.034 492.953 442.732 510.925 442.589 528.494C442.437 546.073 442.393 564.383 435.64 581.343C431.402 591.983 424.496 601.449 416.078 609.105C400.806 622.958 381.063 631.272 360.796 633.841C329.015 637.773 297.49 629.015 268.645 617.046C262.926 614.684 257.089 612.489 250.983 611.535C244.786 610.524 237.796 611.236 233.007 615.724Z" fill="#255791"/>
<path d="M443.676 455.505C443.676 455.505 443.676 455.505 443.676 455.505C442.138 454.558 440.441 455.754 439.26 456.766C438.228 457.687 437.242 458.655 436.303 459.665C427.502 469.184 423.144 481.761 420.843 494.28C418.282 508.261 418.064 522.667 415.509 536.993C415.47 537.211 415.43 537.427 415.39 537.642C412.794 551.605 407.559 566.018 396.657 575.963C386.47 585.197 370.816 589.272 358.396 583.081C357.583 582.669 356.793 582.215 356.028 581.719L356.349 581.646C355.092 583.402 353.842 585.165 352.579 586.918C352.579 586.918 352.579 586.918 352.579 586.918C353.705 585.074 354.821 583.224 355.952 581.382L356.089 581.191L356.273 581.31C357.057 581.743 357.858 582.132 358.676 582.478C371.11 587.628 385.607 582.849 394.769 573.96C404.653 564.29 409.414 550.604 411.949 537.004C411.988 536.794 412.026 536.584 412.064 536.374C414.573 522.421 415.062 507.949 418.19 493.746C420.996 481.019 426.231 468.23 435.832 459.195C436.853 458.238 437.917 457.331 439.023 456.479C440.305 455.521 442.199 454.421 443.676 455.505Z" fill="#255791"/>
<path d="M404.782 491.934C404.681 493.431 404.54 494.927 404.359 496.42C402.738 509.865 397.865 523.046 390.292 534.454C388.204 537.603 385.912 540.618 383.435 543.469C377.502 550.264 368.313 557.344 358.693 554.316L358.538 554.287L358.415 554.108C358.143 553.572 357.871 553.035 357.6 552.497C356.926 551.158 356.257 549.816 355.593 548.471C356.457 549.697 357.317 550.926 358.172 552.157C358.515 552.652 358.857 553.146 359.199 553.642L358.921 553.433C368.014 554.991 375.451 548.019 380.915 541.362C383.203 538.513 385.358 535.562 387.375 532.52C394.68 521.492 400.234 509.287 403.706 496.294C404.092 494.85 404.45 493.397 404.782 491.934Z" fill="#255791"/>
<path d="M333.589 578.363C332.225 578.244 330.871 577.85 329.63 577.185C323.1 573.354 321.109 565.339 319.859 558.499C318.998 553.349 318.219 548.189 317.525 543.017C316.814 537.718 316.193 532.407 315.664 527.084C314.919 520.423 314.159 513.309 309.452 508.334C308.516 507.39 307.422 506.586 306.199 505.972C307.508 506.369 308.759 506.998 309.886 507.829C315.674 512.303 317.399 519.969 318.596 526.691C319.483 531.967 320.283 537.253 320.994 542.551C321.688 547.724 322.297 552.908 322.817 558.104C323.607 564.786 324.582 572.22 329.986 576.623C331.042 577.419 332.264 578.013 333.589 578.363Z" fill="#255791"/>
<path d="M297.972 549.993C297.769 548.95 297.571 547.906 297.373 546.864C295.603 537.508 293.868 528.123 289.276 520.285C289.265 520.265 289.253 520.246 289.242 520.226C284.718 512.709 276.799 506.295 267.336 506.334C266.295 506.354 265.246 506.465 264.201 506.67C265.176 506.242 266.2 505.907 267.256 505.674C277.052 503.592 287.229 509.887 292.261 518.455C292.273 518.477 292.286 518.498 292.299 518.52C297.379 527.256 298.136 537.334 298.036 546.805C298.024 547.868 298.001 548.931 297.972 549.993Z" fill="#255791"/>
<path d="M387.406 488.672C385.683 488.417 383.941 488.603 382.334 489.127C377.942 490.597 374.562 494.153 372.523 498.107C369.687 503.687 368.923 510.098 367.027 516.466C365.712 520.817 363.779 525.182 360.43 528.697C358.868 530.324 356.969 531.713 354.834 532.616C351.054 534.17 345.373 534.155 343.048 529.319C342.199 527.236 342.522 525.315 342.607 523.743C343.095 515.909 340.509 507.783 335.427 501.393C334.356 500.048 333.172 498.782 331.882 497.617C333.316 498.599 334.669 499.716 335.921 500.948C341.869 506.795 345.519 515.193 345.473 523.844C345.44 525.551 345.4 527.065 345.9 528.056C346.883 530.312 350.801 530.674 353.458 529.451C355.121 528.715 356.614 527.616 357.909 526.269C360.684 523.372 362.549 519.495 363.906 515.477C365.924 509.529 367.106 502.858 370.677 497.064C373.3 492.882 377.364 489.466 382.169 488.483C383.918 488.138 385.734 488.188 387.406 488.672Z" fill="#255791"/>
<path d="M548.839 1038.26C548.587 1034.46 548.837 1030.62 549.53 1026.85C552.5 1011.06 562.54 997.265 574.903 987.136C589.447 975.292 606.982 967.96 624.582 962.378C626.708 961.705 628.84 961.057 630.976 960.43C661.844 951.37 693.847 946.228 725.903 945.134C729.711 945.004 733.52 944.931 737.327 944.916C733.528 945.165 729.733 945.459 725.944 945.798C694.048 948.657 662.547 954.685 631.965 963.775C629.85 964.404 627.74 965.05 625.638 965.715C608.223 971.241 591.037 978.15 576.566 989.237C564.296 998.713 553.97 1011.61 550.18 1026.98C549.292 1030.66 548.82 1034.45 548.839 1038.26Z" fill="#255791"/>
<path d="M330.376 1271.59C330.658 1280.72 331.078 1289.65 331.655 1298.75C336.719 1379.98 354.66 1460.62 388.138 1534.77C421.371 1609 469.835 1675.94 527.375 1733.52C533.782 1739.95 540.245 1746.22 546.876 1752.45C546.876 1752.45 546.876 1752.45 546.876 1752.45C540.088 1746.39 533.469 1740.28 526.91 1733.99C468.001 1677.73 418.37 1610.88 384.946 1536.2C351.258 1461.62 334.16 1380.17 330.991 1298.78C330.623 1289.67 330.424 1280.72 330.376 1271.59Z" fill="#255791"/>
<path d="M842.339 1829.41C843.586 1822.48 845.048 1815.58 846.635 1808.71C859.993 1749.2 887.338 1684.53 857.82 1627.29C857.388 1626.45 856.947 1625.61 856.497 1624.78C825.094 1569.12 761.869 1541.71 702.258 1523.64C695.499 1521.66 688.698 1519.8 681.876 1518.08C688.752 1519.58 695.612 1521.22 702.436 1523C762.563 1539.31 827.133 1565.83 859.573 1623.11C860.036 1623.97 860.489 1624.82 860.932 1625.69C891.257 1685.16 862.25 1750.05 847.28 1808.87C845.491 1815.68 843.815 1822.53 842.339 1829.41Z" fill="#255791"/>
<path d="M260.482 1899.6C260.482 1899.6 260.482 1899.6 260.482 1899.6C257.23 1887.71 256.436 1875.12 258.261 1862.89C260.501 1847.74 267.028 1832.94 278.036 1821.99C295.598 1804.59 320.572 1798.35 338.271 1782.2C353.585 1768.22 361.898 1748.07 365.597 1727.83C375.026 1678.02 356.843 1627.09 328.302 1586.22C307.764 1556.58 282.067 1530.63 253.737 1508.3C195.215 1462.25 127.918 1427.43 73.1064 1376.2C64.1059 1367.76 55.4989 1358.91 47.4369 1349.58C55.674 1358.76 64.4292 1367.44 73.5569 1375.71C129.109 1425.89 196.566 1459.8 255.706 1505.78C284.383 1528.13 310.394 1554.23 331.181 1584.23C360.062 1625.55 378.482 1677.63 368.459 1728.36C364.523 1748.99 355.826 1769.63 339.827 1783.93C321.304 1800.35 296.414 1806.17 279.013 1822.99C268.092 1833.52 261.396 1848 258.917 1862.99C256.901 1875.1 257.455 1887.66 260.482 1899.6Z" fill="#255791"/>
<path d="M477.876 1863.92C476.978 1856.5 476.021 1849.34 474.965 1842.09C465.542 1776.75 448.365 1712.69 422.668 1652.07C397.613 1591.11 362.076 1535.07 334.7 1474.93C331.725 1468.21 328.904 1461.43 326.302 1454.6C329.12 1461.34 332.142 1468.03 335.304 1474.65C364.307 1533.83 400.688 1589.41 425.894 1650.71C451.721 1711.63 468.077 1776.38 475.624 1842C476.473 1849.29 477.21 1856.47 477.876 1863.92Z" fill="#255791"/>
<path d="M416.505 1248.66C415.776 1245.74 415.25 1242.77 414.925 1239.77C412.085 1212.3 425.419 1185.75 442.185 1164.7C442.193 1164.69 442.202 1164.68 442.21 1164.67C459.261 1143.37 480.028 1125.89 496.985 1104.87C498.867 1102.54 500.7 1100.16 502.472 1097.74C500.893 1100.29 499.237 1102.8 497.517 1105.27C481.97 1127.55 461.677 1145.92 444.943 1166.85C444.935 1166.86 444.927 1166.87 444.919 1166.88C428.483 1187.63 414.73 1212.51 415.588 1239.72C415.701 1242.71 416.004 1245.69 416.505 1248.66Z" fill="#255791"/>
<path d="M246.368 1264.27C242.068 1259.14 238.072 1253.74 234.396 1248.14C202.952 1200.17 195.163 1136.8 215.559 1082.57C216.622 1079.74 217.622 1076.92 218.41 1074.06C220.365 1067.12 221.121 1058.96 215.953 1054.41C213.783 1052.41 210.712 1051.31 207.512 1050.34C179.336 1041.88 147.755 1044.1 120.513 1029.71C103.136 1020.45 89.7886 1004.44 83.2139 986.144C80.9406 979.818 79.478 973.21 78.9413 966.536C79.7104 973.187 81.3862 979.71 83.8361 985.909C90.9234 1003.84 104.476 1019.14 121.525 1027.77C148.246 1041.22 179.387 1038.61 208.483 1047.08C211.772 1048.06 215.366 1049.23 218.281 1051.86C225.116 1058.02 223.772 1067.82 221.784 1074.99C220.951 1078.01 219.911 1080.93 218.827 1083.8C198.808 1136.89 205.203 1199.02 234.957 1247.78C238.443 1253.48 242.25 1258.99 246.368 1264.27Z" fill="#255791"/>
<path d="M562.489 951.847C562.165 955.66 561.292 959.412 560.144 963.087C548.356 995.92 525.031 1022.7 503.201 1049.14C498.517 1054.69 493.771 1060.2 489.179 1065.7L488.646 1063.13C513.034 1075.36 541.426 1060.92 568.532 1065.57C572.325 1066.25 576.046 1067.33 579.542 1068.9C579.542 1068.9 579.542 1068.9 579.542 1068.9C575.956 1067.55 572.212 1066.69 568.433 1066.23C541.586 1062.95 514.161 1078.83 487.106 1066.13L485.239 1065.16L486.573 1063.56C491.135 1057.96 495.848 1052.43 500.527 1046.88C522.346 1020.45 546.106 994.647 559.515 962.871C560.851 959.296 561.933 955.632 562.489 951.847Z" fill="#255791"/>
<path d="M336.316 1443.14C335.624 1441.88 334.95 1440.61 334.294 1439.33C328.392 1427.8 324.006 1415.44 321.289 1402.73C318.569 1390.01 317.518 1376.94 318.189 1364.01C318.264 1362.57 318.359 1361.14 318.476 1359.71C318.593 1361.14 318.719 1362.57 318.854 1364C320.075 1376.85 322.041 1389.5 324.712 1402C327.386 1414.5 330.765 1426.85 334.907 1439.07C335.367 1440.43 335.837 1441.78 336.316 1443.14Z" fill="#255791"/>
<path d="M416.28 1715.73C416.931 1717.84 417.501 1719.98 417.992 1722.14C422.429 1741.61 420.146 1762.61 412.363 1781.18C404.617 1799.76 391.274 1816.14 374.298 1826.66C372.415 1827.83 370.495 1828.92 368.534 1829.94C370.377 1828.72 372.17 1827.44 373.921 1826.11C389.678 1814.1 401.601 1797.82 409.134 1779.83C416.647 1761.83 419.855 1741.91 417.337 1722.26C417.056 1720.07 416.705 1717.9 416.28 1715.73Z" fill="#255791"/>
<path d="M294.579 1507.51C294.579 1507.51 294.579 1507.51 294.579 1507.51C294.761 1505.25 296.761 1503.48 298.914 1502.81C300.102 1502.42 301.392 1502.29 302.664 1502.51C306.291 1503.13 309.147 1505.63 311.653 1507.94C322.818 1518.31 332.699 1530.12 341 1542.95C351.837 1559.69 359.981 1578.17 364.935 1597.38C365.485 1599.51 365.997 1601.65 366.469 1603.8C365.772 1601.72 365.049 1599.64 364.299 1597.57C357.552 1578.99 348.721 1561.32 338.062 1544.85C329.891 1532.22 320.641 1520.3 310.358 1509.24C308.056 1506.78 305.637 1504.33 302.456 1503.48C301.383 1503.2 300.211 1503.2 299.091 1503.45C297.062 1503.88 295.012 1505.29 294.579 1507.51Z" fill="#255791"/>
<path d="M185.721 1165.84C185.826 1162.7 185.936 1159.57 186.051 1156.43C186.896 1133.56 188.041 1110.71 189.507 1087.88C189.668 1085.78 189.581 1083.83 188.703 1082.88C187.991 1082.01 186.438 1081.55 184.657 1081.27C183.401 1081.06 182.141 1080.88 180.875 1080.71C168.115 1079.03 154.673 1079.36 141.821 1075.22C126.947 1070.39 114.924 1060.05 104.791 1048.88C102.679 1046.56 100.631 1044.17 98.6302 1041.76C100.805 1044.02 103.013 1046.25 105.268 1048.42C116.096 1058.87 128.385 1068.33 142.67 1072.46C155.001 1076.03 168.174 1075.53 181.329 1077.24C182.632 1077.41 183.934 1077.61 185.235 1077.83C187.107 1078.17 189.543 1078.57 191.342 1080.63C193.355 1083.12 193.023 1085.97 192.897 1088.12C191.141 1110.93 189.087 1133.71 186.715 1156.48C186.39 1159.6 186.058 1162.72 185.721 1165.84Z" fill="#255791"/>
<path d="M533.544 942.179C533.651 943.443 533.694 944.717 533.673 945.994C533.484 957.576 528.147 968.787 520.691 977.623C520.691 977.624 520.689 977.625 520.688 977.626C513.185 986.541 503.746 993.312 494.111 999.355C493.037 1000.03 491.958 1000.69 490.876 1001.36C491.819 1000.51 492.765 999.664 493.712 998.823C502.236 991.256 510.847 983.896 518.01 975.373C518.011 975.372 518.012 975.371 518.013 975.369C525.117 966.887 530.921 957.086 533.011 945.928C533.239 944.692 533.418 943.441 533.544 942.179Z" fill="#255791"/>
<path d="M516.071 1647.86C514.627 1646.75 513.195 1645.63 511.776 1644.49C498.997 1634.26 487.21 1622.72 476.669 1610.14C466.127 1597.56 456.83 1583.93 448.992 1569.56C448.121 1567.96 447.268 1566.35 446.433 1564.74C447.468 1566.23 448.509 1567.72 449.556 1569.21C458.984 1582.56 468.916 1595.43 479.352 1607.89C489.789 1620.34 500.731 1632.38 512.221 1644C513.497 1645.29 514.781 1646.58 516.071 1647.86Z" fill="#255791"/>
<path d="M464.135 1044.55C465.054 1045.7 465.888 1046.93 466.629 1048.22C473.372 1060.04 471.897 1075.31 465.822 1087.36C465.815 1087.37 465.808 1087.38 465.802 1087.4C459.623 1099.61 449.576 1108.93 439.354 1117.24C438.211 1118.16 437.061 1119.08 435.907 1120C435.907 1120 435.907 1120 435.907 1120C436.902 1118.91 437.901 1117.83 438.899 1116.75C447.862 1107.05 456.877 1097.32 462.677 1085.82C462.684 1085.8 462.69 1085.79 462.697 1085.78C468.325 1074.45 470.822 1060.81 466.03 1048.51C465.492 1047.15 464.86 1045.83 464.135 1044.55Z" fill="#255791"/>
<path d="M389.512 1212.73C389.208 1211.43 388.926 1210.13 388.666 1208.82C386.327 1197.04 385.811 1184.83 387.118 1172.82C388.42 1160.82 391.546 1149.01 396.356 1138C396.891 1136.78 397.445 1135.56 398.021 1134.36C397.664 1135.65 397.319 1136.93 396.985 1138.22C393.982 1149.79 391.876 1161.45 390.597 1173.2C389.323 1184.95 388.875 1196.79 389.327 1208.74C389.377 1210.07 389.439 1211.4 389.512 1212.73Z" fill="#255791"/>
<path d="M648.618 1197.67C637.606 1195.93 627.078 1191.44 617.934 1185.02C593.864 1168.12 578.504 1137.81 582.794 1107.98L584.646 1108.77C541.97 1164.65 510.741 1231.53 506.924 1302.1C505.421 1331.82 509.415 1361.9 519.775 1389.83C530.435 1418.71 547.455 1444.95 558.968 1473.9C573.548 1510.58 578.522 1550.89 573.698 1589.89C572.329 1600.96 570.172 1611.92 567.226 1622.65C569.947 1611.86 571.881 1600.87 573.037 1589.82C577.111 1550.84 571.533 1510.94 556.696 1474.82C544.99 1446.3 527.747 1420.23 516.733 1390.97C506.046 1362.65 501.902 1332.07 503.429 1301.92C507.309 1230.35 539.379 1163.06 583.002 1107.49L585.46 1104.35L584.855 1108.29C580.287 1137.14 594.757 1167.27 618.321 1184.48C627.268 1191.01 637.645 1195.7 648.618 1197.67Z" fill="#255791"/>
<path d="M551.096 1298.44C551.096 1298.44 551.096 1298.44 551.096 1298.44C552.321 1299.5 553.645 1300.42 555.04 1301.19C566.89 1307.37 580.414 1303.98 593.755 1304.59C595.099 1304.64 596.441 1304.74 597.78 1304.88C612.615 1306.37 626.804 1313.12 637.188 1323.44C638.342 1324.59 639.449 1325.77 640.505 1327C640.505 1327 640.505 1327 640.505 1327C639.284 1325.94 638.031 1324.92 636.751 1323.94C625.218 1315.17 611.509 1309.81 597.424 1308.36C596.153 1308.23 594.878 1308.13 593.602 1308.07C580.93 1307.31 566.161 1309.76 554.68 1301.75C553.36 1300.78 552.156 1299.67 551.096 1298.44Z" fill="#255791"/>
<path d="M604.696 1247.8C603.112 1247.33 601.558 1246.73 600.048 1246.03C586.215 1239.5 577.807 1225.19 572.952 1211.2C572.949 1211.19 572.946 1211.18 572.943 1211.17C568.044 1196.97 565.879 1182.31 560.197 1168.63C559.565 1167.11 558.89 1165.61 558.163 1164.13C559.092 1165.49 559.967 1166.9 560.794 1168.34C568.265 1181.36 571.482 1196.24 576.252 1210.03C576.255 1210.04 576.258 1210.05 576.261 1210.05C581.055 1223.67 587.841 1237.4 600.366 1245.45C601.749 1246.32 603.194 1247.11 604.696 1247.8Z" fill="#255791"/>
<path d="M681.238 1277.69C678.528 1277.93 675.817 1278.16 673.106 1278.39C660.813 1279.42 648.514 1280.32 636.212 1281.12C627.063 1281.7 617.44 1282.26 608.207 1279.22C605.3 1278.26 602.535 1276.95 599.917 1275.46C595.207 1272.77 590.968 1269.5 586.819 1266.28C571.91 1254.56 555.812 1241.22 550.373 1222.17C549.647 1219.53 549.171 1216.83 548.964 1214.11C549.403 1216.8 550.093 1219.43 551.007 1221.97C557.775 1240.15 573.802 1252.13 588.867 1263.6C593.064 1266.76 597.215 1269.89 601.65 1272.42C604.115 1273.82 606.666 1275.04 609.31 1275.94C617.68 1278.8 626.919 1278.56 636.084 1278.32C648.41 1278 660.74 1277.8 673.076 1277.72C675.797 1277.71 678.517 1277.69 681.238 1277.69Z" fill="#255791"/>
<path d="M637.687 1455.14C634.937 1457.98 630.49 1457.34 626.974 1456.45C626.249 1456.26 625.528 1456.07 624.811 1455.86C595.293 1447.34 572.997 1423.93 554.904 1400.12C548.717 1391.97 542.8 1383.53 537.726 1374.54C532.264 1364.87 527.794 1354.51 525.331 1343.57C518.674 1314.05 526.865 1284.22 536.401 1256.77C537.876 1252.54 539.4 1248.32 540.938 1244.11C539.621 1248.4 538.307 1252.68 537.034 1256.98C528.774 1284.86 521.719 1314.49 528.534 1342.82C531.045 1353.34 535.43 1363.36 540.774 1372.82C545.737 1381.62 551.516 1389.96 557.56 1398.13C575.273 1421.97 596.229 1445.41 625.009 1455.22C625.71 1455.46 626.416 1455.69 627.127 1455.91C630.55 1456.94 634.8 1457.81 637.687 1455.14Z" fill="#255791"/>
<path d="M609.234 1386.01C608.997 1384.89 608.483 1383.88 607.834 1382.99C606.121 1380.69 603.629 1379.09 601.047 1378.12C598.556 1377.15 595.29 1377.01 594.407 1378.5C592.65 1381.12 594.046 1385.56 595.836 1389.03C597.204 1391.66 598.966 1394.14 601.011 1396.31C605.649 1401.26 611.556 1405.05 617.64 1408.63C618.619 1409.2 619.602 1409.78 620.584 1410.36C619.505 1409.99 618.428 1409.62 617.356 1409.23C610.723 1406.83 604.087 1403.67 598.731 1398.6C596.308 1396.3 594.278 1393.62 592.728 1390.64C590.85 1386.7 588.638 1381.5 592.045 1376.66C595.282 1373.33 599.245 1374.97 601.891 1376.24C604.658 1377.71 607.054 1379.89 608.407 1382.65C608.914 1383.71 609.231 1384.87 609.234 1386.01Z" fill="#255791"/>
<path d="M657.8 1359.39C655.782 1357.4 653.679 1355.51 651.501 1353.71C631.877 1337.6 606.368 1329.37 581.433 1331.04C580.671 1331.09 579.909 1331.15 579.148 1331.22C577.416 1331.37 575.871 1331.64 574.911 1332.36C573.409 1333.41 572.773 1335.84 572.447 1338.39C569.81 1358.08 572.725 1378.55 580.838 1396.99C581.975 1399.57 583.216 1402.11 584.559 1404.6C584.559 1404.6 584.559 1404.6 584.559 1404.6C583.015 1402.23 581.574 1399.78 580.24 1397.28C570.704 1379.38 566.666 1358.37 569.096 1337.96C569.457 1335.3 569.885 1331.86 572.848 1329.57C574.816 1328.13 577.014 1327.93 578.818 1327.74C579.613 1327.66 580.405 1327.6 581.197 1327.55C607.134 1325.77 633.454 1335.52 651.943 1353.22C653.996 1355.18 655.953 1357.24 657.8 1359.39Z" fill="#255791"/>
<path d="M543.965 1308.09C544.287 1308.81 544.601 1309.53 544.908 1310.25C547.669 1316.76 549.81 1323.49 551.31 1330.37C552.81 1337.24 553.669 1344.25 553.874 1351.32C553.897 1352.11 553.911 1352.89 553.918 1353.68C553.681 1352.93 553.447 1352.18 553.218 1351.43C551.149 1344.68 549.377 1337.93 547.89 1331.11C546.403 1324.3 545.201 1317.43 544.267 1310.43C544.163 1309.65 544.062 1308.87 543.965 1308.09Z" fill="#255791"/>
<path d="M617.965 1297.09C619.526 1297.92 621.08 1298.75 622.628 1299.6C636.558 1307.24 649.952 1315.88 662.668 1325.43C675.383 1334.97 687.419 1345.42 698.643 1356.67C699.89 1357.92 701.127 1359.18 702.354 1360.45C700.97 1359.35 699.586 1358.26 698.201 1357.16C685.735 1347.34 673.205 1337.71 660.566 1328.23C647.928 1318.74 635.182 1309.4 622.274 1300.16C620.839 1299.14 619.403 1298.11 617.965 1297.09Z" fill="#255791"/>
<path d="M888.36 1668.97C888.36 1668.97 888.36 1668.97 888.36 1668.97C888.84 1663.42 888.804 1657.84 888.275 1652.31C883.092 1604.81 846.88 1567.76 807.847 1543.62C805.189 1541.99 802.5 1540.41 799.787 1538.87C756.254 1514.32 707.507 1500.7 659.073 1488.16C653.678 1486.77 648.276 1485.39 642.876 1484.03C642.876 1484.03 642.876 1484.03 642.876 1484.03C648.329 1485.17 653.781 1486.32 659.227 1487.51C708.082 1498.22 757.402 1510.97 801.513 1535.83C804.26 1537.38 806.981 1538.99 809.67 1540.64C849.248 1565.15 885.561 1604.09 888.938 1652.26C889.26 1657.84 889.072 1663.44 888.36 1668.97Z" fill="#255791"/>
<path d="M803.163 1905.54C803.163 1905.54 803.163 1905.54 803.163 1905.54C805.108 1902.39 806.335 1898.85 806.874 1895.24C808.393 1885.05 804.576 1874.12 796.669 1867.89C793.137 1865.09 788.91 1863.16 784.863 1860.62C768.953 1850.55 759.721 1831.59 760.176 1812.86C760.321 1806.92 761.459 1800.97 763.656 1795.42C766.84 1787.41 771.731 1780.51 775.801 1773.37C785.203 1756.92 790.847 1738.26 792.2 1719.16C792.46 1715.48 792.561 1711.79 792.497 1708.09C792.794 1711.78 792.916 1715.48 792.865 1719.19C792.601 1738.44 787.652 1757.73 778.417 1774.83C774.413 1782.23 769.736 1789.12 766.837 1796.66C764.847 1801.84 763.811 1807.38 763.675 1812.95C763.253 1830.49 771.61 1848.44 786.312 1858.39C790.077 1860.94 794.349 1863.06 798.044 1866.21C806.382 1873.36 809.667 1885.05 807.528 1895.36C806.769 1899.02 805.303 1902.52 803.163 1905.54Z" fill="#255791"/>
<path d="M601.238 1622.81C601.238 1622.81 601.238 1622.81 601.238 1622.81C601.118 1630.47 601.266 1638.16 601.835 1645.8C603.769 1672.38 611.596 1704.63 638.662 1713.99C646.568 1716.8 655.526 1717.15 663.658 1721.34C689.318 1736.11 683.728 1769.58 678.431 1793.15L675.21 1791.93C678.38 1785.78 681.534 1779.39 684.659 1773.08C695.956 1749.59 708.501 1726.03 716.952 1701.95C720.441 1684.54 704.22 1670.33 689.521 1662.04C667.088 1652.12 641.881 1647.19 619.139 1636.62C612.395 1633.23 604.675 1629.92 601.222 1622.83C601.227 1622.82 601.233 1622.82 601.238 1622.81C601.238 1622.81 601.238 1622.81 601.238 1622.81C601.233 1622.82 601.228 1622.82 601.223 1622.83C604.874 1629.78 612.611 1632.82 619.413 1636.02C642.419 1645.95 667.208 1650.11 690.645 1659.98C705.703 1668.25 723.486 1682.46 719.98 1702.58C711.388 1728.01 699.161 1750.93 687.797 1774.63C684.662 1780.96 681.519 1787.31 678.281 1793.54L671.681 1806.07L675.06 1792.32C680.497 1769.01 685.323 1737.1 662.318 1723.88C655.017 1719.94 646.157 1719.39 637.816 1716.33C609.273 1705.72 602.431 1672.43 601.172 1645.84C600.811 1638.17 600.885 1630.46 601.238 1622.81ZM601.238 1622.81" fill="#255791"/>
<path d="M587.341 1715.31C585.301 1714.21 583.386 1712.85 581.65 1711.27C570.437 1700.83 567.755 1684.58 566.755 1670C566.376 1663.9 566.194 1657.78 566.199 1651.66C566.216 1630.72 568.419 1609.83 572.316 1589.32C572.749 1587.05 573.203 1584.77 573.677 1582.5C573.433 1584.81 573.199 1587.11 572.974 1589.42C570.953 1610.17 569.717 1630.92 569.699 1651.66C569.694 1657.73 569.794 1663.79 570.01 1669.84C570.649 1684.22 572.209 1699.71 582.118 1710.8C583.671 1712.49 585.422 1714.01 587.341 1715.31Z" fill="#255791"/>
<path d="M717.549 1635.89C716.079 1635.52 714.61 1635.16 713.143 1634.79C699.933 1631.49 686.8 1628.13 673.69 1624.68C660.58 1621.23 647.491 1617.7 634.368 1614.07C632.91 1613.67 631.451 1613.26 629.992 1612.86C631.496 1613.04 632.999 1613.22 634.5 1613.42C648.012 1615.2 661.406 1617.83 674.58 1621.29C687.755 1624.76 700.711 1629.06 713.348 1634.16C714.752 1634.72 716.153 1635.3 717.549 1635.89Z" fill="#255791"/>
<path d="M581.58 1763.96C580.513 1762.91 579.453 1761.86 578.399 1760.8C568.912 1751.24 559.936 1741.2 551.51 1730.72C543.084 1720.24 535.209 1709.32 527.92 1698C527.11 1696.74 526.307 1695.48 525.512 1694.21C526.495 1695.34 527.475 1696.47 528.452 1697.6C537.25 1707.78 545.838 1718.08 554.238 1728.53C562.639 1738.98 570.852 1749.58 578.903 1760.36C579.797 1761.56 580.69 1762.76 581.58 1763.96Z" fill="#255791"/>
<path d="M687.304 1699.43C687.19 1698.59 687.042 1697.77 686.863 1696.96C685.227 1689.65 681.175 1683.45 676.001 1678.57C670.8 1673.73 664.341 1670.1 656.942 1668.95C656.12 1668.83 655.291 1668.74 654.448 1668.68C654.448 1668.68 654.448 1668.68 654.448 1668.68C655.275 1668.51 656.109 1668.38 656.957 1668.29C664.627 1667.49 672.672 1670.62 678.393 1676.02C684.156 1681.37 687.806 1689.19 687.525 1696.9C687.497 1697.75 687.423 1698.59 687.304 1699.43Z" fill="#255791"/>
<path d="M545.014 1692.63C545.201 1691.32 545.225 1690.02 545.078 1688.75C543.038 1676.99 530.926 1671.45 520.837 1666.83C520.834 1666.83 520.833 1666.83 520.832 1666.83C510.452 1662.18 497.474 1654.81 497.132 1641.83C497.177 1640.49 497.414 1639.17 497.812 1637.92C497.642 1639.23 497.634 1640.53 497.797 1641.8C499.973 1653.53 512.102 1658.97 522.205 1663.61C522.206 1663.61 522.207 1663.61 522.208 1663.61C532.598 1668.25 545.551 1675.74 545.743 1688.73C545.682 1690.07 545.428 1691.38 545.014 1692.63Z" fill="#255791"/>
<path d="M808.305 1605.05C807.891 1604.09 807.461 1603.14 807.014 1602.21C802.988 1593.8 797.692 1586.28 791.457 1579.67C785.212 1573.06 778.01 1567.35 769.841 1562.85C768.933 1562.35 768.013 1561.87 767.081 1561.4C768.094 1561.65 769.1 1561.93 770.1 1562.24C779.108 1565.02 787.447 1570.31 794.002 1577.26C800.568 1584.21 805.373 1592.83 807.64 1601.98C807.893 1603 808.115 1604.02 808.305 1605.05Z" fill="#255791"/>
<path d="M467.819 1114.07C467.258 1114.78 466.699 1115.49 466.14 1116.19C461.115 1122.55 456.188 1128.84 451.275 1135.14C446.362 1141.44 441.461 1147.74 436.523 1154.17C435.974 1154.88 435.425 1155.6 434.875 1156.31C435.223 1155.48 435.582 1154.65 435.952 1153.83C439.281 1146.41 443.512 1139.4 448.515 1132.98C453.516 1126.57 459.289 1120.76 465.67 1115.72C466.379 1115.16 467.096 1114.61 467.819 1114.07Z" fill="#255791"/>
<path d="M969.739 -13.5532C952.746 7.28319 934.122 26.8009 914.092 44.7641C904.523 53.3466 894.632 61.5743 884.445 69.4211C840.653 103.17 791.163 130.11 754.065 171.354C701.285 230.127 680.329 315.626 699.83 391.987C709.913 431.421 729.823 467.728 740.385 507.573C750.607 546.581 750.702 593.307 722.314 625.407C713.516 635.296 702.386 642.95 690.331 648.195C660.831 660.842 627.908 660.919 596.871 656.464C552.963 649.963 509.806 635.471 465.716 640.426C430.982 644.378 398.813 660.362 369.379 679.056C303.464 721.008 243.998 782.661 227.819 861.079C217.685 911.693 230.345 966.845 262.641 1007.44C279.37 1028.37 302.109 1044.84 328.01 1052.38C302.045 1045.07 279.089 1028.75 262.125 1007.86C229.372 967.336 216.182 911.953 226.103 860.733C241.945 781.507 301.644 719.049 367.816 676.606C397.359 657.704 429.861 641.36 465.349 637.224C510.395 632.091 553.863 646.691 597.376 653.049C628.012 657.431 660.406 657.241 688.929 644.988C700.591 639.912 711.266 632.561 719.711 623.08C746.926 592.452 747.168 546.856 737.136 508.43C726.807 469.091 706.971 432.706 696.857 392.742C677.337 315.267 698.964 229.002 752.553 169.988C790.217 128.616 839.915 102.03 883.864 68.66C894.089 60.9032 904.026 52.7639 913.65 44.2673C933.794 26.4839 952.566 7.13492 969.739 -13.5532Z" fill="#255791"/>
<path d="M266.509 713.297C263.647 716.365 260.845 719.484 258.103 722.652C238.867 744.879 222.59 769.524 209.774 795.828C206.147 803.27 202.794 810.844 199.674 818.517C185.514 853.345 176.185 889.983 166.956 926.563C165.93 930.629 164.906 934.698 163.876 938.764C164.678 934.647 165.486 930.53 166.307 926.417C173.692 889.437 182.134 852.376 196.431 817.198C199.581 809.454 203.011 801.819 206.76 794.338C220.004 767.892 237.241 743.484 257.611 722.204C260.514 719.171 263.481 716.201 266.509 713.297Z" fill="#255791"/>
<path d="M201.948 916.512C202.065 918.606 202.176 920.7 202.281 922.794C202.522 927.61 202.733 932.426 202.913 937.242L200.989 937.345C198.97 923.411 198.192 909.217 199.248 895.09C200.632 876.139 205.532 857.289 214.365 840.54C215.34 838.68 216.361 836.848 217.429 835.037C216.568 836.955 215.749 838.88 214.968 840.819C207.904 858.286 204.112 876.742 202.739 895.352C201.702 909.215 201.939 923.181 202.907 937.139L200.984 937.242C201.164 932.426 201.374 927.61 201.616 922.794C201.721 920.7 201.832 918.606 201.948 916.512Z" fill="#255791"/>
<path d="M917.507 839.383C903.465 836.668 889.738 832.489 876.263 827.702C850.528 818.561 825.609 807.221 799.596 799.141C710.845 771.717 599.264 789.799 544.359 869.113C540.666 874.499 537.28 880.1 534.123 885.836C519.94 911.613 510.44 939.853 496.372 966.135C468.464 1018.25 422.697 1060.46 368.632 1084.04C331.968 1099.72 287.234 1106.83 251.182 1086.42C246.056 1083.43 241.268 1079.86 236.95 1075.8C233.771 1072.73 230.003 1067.61 233.086 1063.3C233.644 1062.52 234.686 1062.13 235.604 1062.38C236.523 1062.6 237.306 1063.18 237.941 1063.84C238.567 1064.52 239.109 1065.33 239.261 1066.25C239.332 1066.7 239.233 1067.23 238.851 1067.52C238.48 1067.8 237.999 1067.86 237.535 1067.86C237.999 1067.86 238.478 1067.79 238.837 1067.5C239.206 1067.21 239.293 1066.7 239.217 1066.26C239.054 1065.35 238.504 1064.56 237.877 1063.91C236.721 1062.61 234.339 1061.72 233.227 1063.41C230.317 1067.58 234.039 1072.53 237.22 1075.51C241.578 1079.48 246.386 1082.95 251.513 1085.84C287.518 1105.53 331.641 1097.93 367.757 1082.06C421.124 1058.14 466.044 1016.08 493.417 964.558C507.231 938.566 516.68 910.305 531.057 884.149C534.26 878.329 537.706 872.63 541.479 867.137C597.798 786.088 711.162 768.845 800.122 797.482C826.181 805.911 850.928 817.574 876.49 827.077C889.875 832.054 903.511 836.439 917.507 839.383Z" fill="#255791"/>
<path d="M791.274 538.109C791.274 538.109 791.274 538.109 791.274 538.109C793.638 546.927 795.102 555.994 795.684 565.125C797.728 597.214 788.903 630.124 770.332 656.691C746.47 690.813 707.112 713.63 665.487 717.352C656.552 718.149 647.579 718.103 638.673 717.514C596.874 714.727 556.558 700.38 515.161 704.365C474.845 708.252 438.316 729.948 408.087 756.537C401.236 762.555 394.638 768.871 388.272 775.408C388.272 775.408 388.272 775.408 388.272 775.408C394.468 768.71 400.918 762.229 407.643 756.043C437.304 728.726 473.766 706.073 514.875 701.606C557.096 697.094 597.778 711.332 638.904 714.022C647.671 714.602 656.46 714.654 665.183 713.899C705.755 710.371 744.436 688.444 768.336 655.275C786.935 629.446 796.316 597.138 795.02 565.16C794.65 556.061 793.412 546.985 791.274 538.109Z" fill="#255791"/>
<path d="M537.796 803.762C532.552 805.124 527.554 807.293 522.93 810.051C510.237 817.662 500.459 829.212 492.75 841.662C475.058 870.511 466.85 903.78 453.937 935.262C444.968 957.244 433.104 979.042 414.651 994.78C395.404 1011.31 369.941 1019.97 344.904 1019.2C339.475 1019.04 334.066 1018.43 328.757 1017.37C334.107 1018.2 339.515 1018.58 344.911 1018.54C369.793 1018.32 394.41 1009.04 412.79 992.653C430.439 977.01 441.804 955.72 450.699 933.933C463.489 902.795 472.226 869.315 490.954 840.521C499.12 828.089 509.476 816.662 522.6 809.473C527.378 806.869 532.499 804.897 537.796 803.762Z" fill="#255791"/>
<path d="M264.412 932.336C264.167 927.36 263.974 922.38 263.834 917.397C263.283 897.758 263.552 878.082 264.634 858.445C265.145 832.234 281.902 810.007 298.446 791.618C306.033 782.771 313.324 773.74 319.107 763.734C335.754 735.186 364.572 710.385 398.608 709.335C403.613 709.199 408.622 709.608 413.518 710.534C408.584 709.838 403.588 709.656 398.64 709.999C365.111 712.494 337.976 737.362 321.977 765.379C316.145 775.73 308.723 785.01 301.107 793.892C284.437 812.503 268.402 833.197 267.233 858.619C265.691 878.162 264.776 897.764 264.499 917.393C264.429 922.372 264.4 927.354 264.412 932.336Z" fill="#255791"/>
<path d="M325.559 934.386C324.97 931.893 324.387 929.394 323.818 926.894C318.711 904.437 314.461 881.476 315.109 858.145C315.45 846.128 317.171 834.078 320.747 822.563C324.133 811.925 329.904 800.882 340.252 795.721C342.598 794.598 345.125 793.895 347.685 793.671C345.155 794.127 342.745 795.035 340.563 796.309C331.015 802.1 326.234 812.924 323.384 823.319C320.369 834.716 318.944 846.462 318.608 858.246C317.967 881.09 321.217 903.956 324.471 926.773C324.835 929.31 325.199 931.849 325.559 934.386Z" fill="#255791"/>
<path d="M813.399 522.801C814.739 515.946 816.084 509.07 816.593 502.122C816.709 500.55 816.781 498.975 816.8 497.402C817.093 464.353 796.09 436.844 777.514 410.908C760.949 387.647 743.888 361.595 744.142 331.383C744.208 327.789 744.55 324.197 745.178 320.65C750.092 292.491 754.916 264.215 759.366 235.986C762.565 215.141 770.406 194.287 785.207 178.894C792.045 171.792 800.038 166.121 807.48 159.864C812.812 155.384 817.918 150.548 821.923 144.803C818.113 150.679 813.131 155.712 807.916 160.366C800.636 166.867 792.81 172.765 786.284 179.904C772.165 195.36 764.929 215.874 762.097 236.384C758.072 264.746 753.491 293.038 748.616 321.256C748.026 324.622 747.704 328.03 747.641 331.448C747.335 360.115 763.668 385.852 779.879 409.228C798.069 435.359 818.899 463.949 817.606 497.424C817.539 499.014 817.419 500.6 817.256 502.18C816.531 509.164 814.967 515.995 813.399 522.801Z" fill="#255791"/>
<path d="M341.396 943.362C341.396 943.362 341.396 943.362 341.396 943.362C348.755 938.231 353.774 930.463 357.034 922.255C362.711 907.973 364.39 892.529 369.09 877.762C379.067 846.74 402.856 823.171 425.433 801.049C440.346 786.484 455.633 771.575 474.43 761.503C485.2 755.747 497.072 751.827 509.358 750.833C518.407 750.105 527.697 751.08 536.308 754.232L538.166 754.905L537.252 756.662C526.784 776.262 505.702 784.734 488.141 794.866C444.495 819.738 410.329 860.747 393.044 908.196C390.001 916.556 387.485 925.115 385.539 933.812C385.539 933.812 385.539 933.812 385.539 933.812C387.256 925.067 389.562 916.432 392.416 907.976C408.618 859.973 442.472 817.808 486.588 792.167C504.341 781.81 524.67 773.196 534.18 755.06L535.124 757.489C527.031 754.551 518.263 753.628 509.636 754.322C497.926 755.266 486.472 759.009 476.047 764.535C457.784 774.227 442.584 788.793 427.535 803.22C404.745 825.12 381.036 847.988 370.655 878.278C365.737 892.739 363.708 908.242 357.648 922.51C354.168 930.713 348.887 938.43 341.396 943.362Z" fill="#255791"/>
<path d="M890.941 813.004C886.385 808.433 881.591 804.109 876.59 800.048C853.448 781.259 825.9 768.086 796.89 762.043C777.557 758.016 757.712 757.098 737.881 756.12C729.553 755.712 721.236 755.302 712.927 755.09C692.581 754.568 672.089 755.245 652.418 760.165C616.027 769.239 584.874 792.104 555.908 815.756C550.911 819.837 545.951 823.966 540.995 828.097C540.995 828.097 540.995 828.097 540.995 828.097C545.799 823.79 550.614 819.492 555.479 815.248C583.664 790.678 614.522 766.852 651.638 757.116C671.692 751.855 692.533 751.066 713.017 751.591C721.384 751.804 729.73 752.236 738.058 752.683C757.881 753.755 777.919 754.877 797.489 759.276C826.863 765.877 854.419 779.932 877.018 799.539C881.901 803.776 886.553 808.271 890.941 813.004Z" fill="#255791"/>
<path d="M814.408 669.912C813.756 671.325 813.056 672.704 812.3 674.068C805.511 686.392 794.547 696.186 782.554 703.45C770.503 710.77 757.392 715.881 744.151 720.195C742.679 720.673 741.198 721.145 739.723 721.605C741.112 720.928 742.511 720.251 743.903 719.578C756.445 713.51 768.991 707.596 780.734 700.46C792.447 693.335 803.426 684.855 811.742 673.707C812.666 672.47 813.552 671.212 814.408 669.912Z" fill="#255791"/>
<path d="M687.848 664.431C687.848 664.431 687.848 664.431 687.848 664.431C687.651 664.4 687.449 664.341 687.309 664.188C687.165 664.034 687.158 663.795 687.22 663.604C687.349 663.212 687.636 662.902 687.953 662.651C688.274 662.405 688.652 662.207 689.078 662.173C689.506 662.124 689.965 662.383 690.163 662.773C691.245 664.882 689.341 666.894 687.844 668.116C687.26 668.587 686.666 669.047 686.066 669.496C664.451 685.53 635.53 686.12 609.821 682.247C596.858 680.272 584.139 677.289 571.404 674.776C557.79 672.086 544.064 669.921 530.289 670.148C505.335 670.551 480.513 679.064 460.239 694.075C456.746 696.663 453.388 699.445 450.193 702.413C450.193 702.413 450.193 702.413 450.193 702.413C453.225 699.279 456.447 696.319 459.831 693.55C479.463 677.478 504.562 667.851 530.211 667.006C544.353 666.533 558.377 668.635 572.082 671.342C584.908 673.875 597.556 676.946 610.326 679.1C635.629 683.283 663.61 683.696 685.68 668.954C686.295 668.539 686.905 668.112 687.508 667.673C689.008 666.574 690.819 664.776 689.943 662.891C689.637 662.15 688.627 662.3 688.028 662.753C687.713 662.975 687.42 663.262 687.28 663.624C687.213 663.801 687.207 664.016 687.333 664.167C687.457 664.318 687.652 664.39 687.848 664.431Z" fill="#255791"/>
<path d="M604.593 729.617C603.388 730.176 602.193 730.749 601.006 731.335C590.33 736.617 580.38 742.964 571.158 750.229C561.941 757.499 553.444 765.69 545.816 774.838C544.969 775.855 544.133 776.884 543.308 777.924C543.938 776.755 544.593 775.598 545.273 774.454C551.391 764.156 559.509 754.949 568.992 747.48C578.469 740.005 589.318 734.262 600.76 730.718C602.031 730.324 603.309 729.957 604.593 729.617Z" fill="#255791"/>
<path d="M1146.75 838.08C1142.09 845.338 1136.25 851.807 1129.74 857.493C1115.06 870.298 1097.53 879.22 1080.18 887.728C1041.12 906.712 998.284 926.096 953.285 919.218C939.012 916.981 925.446 912.113 912.12 907.231C911.704 907.078 911.287 906.925 910.871 906.773C876.937 894.335 843.039 881.795 809.171 869.179C785.974 860.533 762.687 851.803 738.267 847.892C722.394 845.361 706.056 844.962 690.189 847.943C681.748 849.534 673.468 852.11 665.682 855.813C673.364 851.9 681.607 849.097 690.057 847.291C705.944 843.903 722.446 843.939 738.523 846.187C763.249 849.659 786.865 858.108 810.157 866.484C844.169 878.711 878.14 891.053 912.076 903.487C912.493 903.639 912.909 903.792 913.325 903.945C926.637 908.825 939.979 913.626 953.819 915.855C997.389 922.778 1039.98 904.304 1079.36 886.01C1096.84 877.83 1114.41 869.354 1129.31 856.988C1135.91 851.494 1141.9 845.209 1146.75 838.08Z" fill="#255791"/>
<path d="M718.762 826.575C718.762 826.575 718.762 826.575 718.762 826.575C715.374 825.075 711.901 823.792 708.37 822.722C678.102 813.606 643.879 819.935 619.598 839.443C618.363 840.438 617.153 841.463 615.963 842.517C602.894 854.102 592.77 868.736 581.355 882.349C571.305 894.306 559.86 905.758 545.634 912.607C542.278 914.215 538.793 915.538 535.218 916.513C535.218 916.513 535.218 916.513 535.218 916.513C538.724 915.315 542.103 913.794 545.33 912.016C558.991 904.447 569.661 892.779 579.261 880.646C590.164 866.836 600.129 851.896 613.642 839.897C614.871 838.808 616.126 837.748 617.411 836.719C642.759 816.417 678.652 811.128 708.581 822.092C712.071 823.369 715.475 824.865 718.762 826.575Z" fill="#255791"/>
<path d="M832.3 861.667C830.617 861.061 828.923 860.494 827.224 859.946C820.392 857.738 813.435 855.819 806.764 852.786C798.52 849.009 791.166 843.707 784.063 838.396C784.028 838.37 783.992 838.343 783.957 838.317C771.124 828.72 758.579 818.742 746.305 808.399C744.937 807.246 743.573 806.089 742.212 804.928C743.713 805.902 745.21 806.882 746.703 807.866C760.105 816.699 773.218 825.922 786.053 835.514C786.088 835.54 786.124 835.567 786.159 835.593C793.265 840.908 800.241 846.278 807.934 850.426C814.16 853.767 820.909 856.322 827.465 859.326C829.094 860.072 830.71 860.847 832.3 861.667Z" fill="#255791"/>
<path d="M756.742 880.799C754.054 880.506 751.383 880.009 748.738 879.42C745.242 878.64 741.788 877.701 738.334 876.847C725.214 873.607 711.688 871.528 698.451 873.055C691.521 873.864 684.709 875.721 678.465 878.731C672.86 881.433 667.723 885.101 663.595 889.714C659.454 894.308 656.171 900.076 651.074 904.535C641.801 912.562 629.305 913.76 618.002 913.67C615.292 913.645 612.587 913.539 609.889 913.408C612.589 913.306 615.291 913.19 617.982 913.005C629.252 912.243 641.193 910.188 649.258 902.527C653.738 898.303 656.774 892.602 661.113 887.536C665.468 882.462 670.973 878.455 676.944 875.579C683.598 872.372 690.822 870.501 698.114 869.818C712.01 868.544 725.766 871.339 738.724 875.465C742.138 876.554 745.501 877.734 748.907 878.777C751.485 879.565 754.089 880.275 756.742 880.799Z" fill="#255791"/>
<path d="M478.512 1868.92C480.262 1885.36 480.802 1902.01 478.118 1918.36C475.203 1938.65 464.699 1956.83 453.084 1973.28C421.375 2013.22 376.274 2038.46 334.746 2066.51C269.513 2106.75 237.553 2181.61 221.217 2254.2C220.638 2256.71 220.051 2259.16 219.458 2261.56C213.102 2287.63 204.192 2313.22 193.531 2337.79C183.107 2361.85 170.224 2388.56 183.444 2413.12C203.644 2458.57 271.935 2492.14 247.946 2550.15C228.334 2592.04 175.637 2593.77 135.776 2590.16C119.325 2588.59 102.968 2585.75 86.8756 2582.28C103.016 2585.52 119.399 2588.14 135.835 2589.5C175.753 2592.67 227.74 2589.92 246.085 2549.31C268.962 2493.68 202.258 2461.28 180.588 2414.41C166.597 2388.82 180.183 2360.07 190.395 2336.45C200.96 2311.95 209.743 2286.62 216.06 2260.73C216.649 2258.34 217.232 2255.9 217.807 2253.42C234.184 2180.53 266.909 2104.53 333.278 2064.22C374.926 2036.52 420.286 2011.52 451.939 1972.5C463.748 1956.14 474.288 1938.4 477.463 1918.25C480.34 1902.02 480.031 1885.39 478.512 1868.92Z" fill="#255791"/>
<path d="M592.162 2087.03C594.66 2077.85 591.317 2068.05 585.545 2060.85C583.338 2058.09 580.755 2055.62 577.89 2053.56C567.175 2045.88 553.848 2043.19 540.867 2041.94C472.99 2035.42 407.163 2065.47 354.723 2106.82C348.666 2111.59 342.75 2116.55 336.982 2121.66C280.153 2172.21 234.712 2238.57 219.673 2314.1C217.859 2323.3 216.518 2332.59 215.68 2341.94C216.285 2332.57 217.408 2323.24 219.019 2313.98C232.373 2237.89 277.475 2170.1 334.673 2119.07C340.48 2113.89 346.444 2108.89 352.556 2104.07C405.413 2062.34 472.624 2032.43 541.042 2040.27C554.119 2041.77 567.659 2044.77 578.423 2052.83C581.311 2055.01 583.888 2057.58 586.069 2060.45C591.78 2067.89 594.896 2077.91 592.162 2087.03Z" fill="#255791"/>
<path d="M490.77 1977.31C490.77 1977.31 490.77 1977.31 490.77 1977.31C490.33 1991.86 497.766 2005.82 508.69 2015.04C516.204 2021.4 525.543 2025.69 535.314 2026.69C557.697 2029.12 580.376 2016.68 602.95 2025.53C613.913 2030.57 614.18 2045.04 624.861 2047.3C629.294 2048.62 634.224 2049.13 637.97 2046.91C644.3 2043.04 643.228 2033.66 643.351 2026.07C643.271 2018.15 643.34 2009.94 645.824 2002.09C658.186 1977.67 687.243 1964.37 713.7 1969.81C732.835 1973.73 752.15 1959.65 758.849 1941.78C766.285 1923.57 759.17 1902.39 745.3 1888.82C745.242 1888.76 745.184 1888.7 745.126 1888.64C715.925 1861.19 720.856 1816.1 734.91 1782.77C748.528 1747.94 769.093 1716.63 784.194 1682.96C795.235 1659.27 803.257 1623.39 775 1610.29C750.294 1597.72 721.709 1595.63 694.429 1590.62C680.222 1588.24 665.978 1585.68 651.876 1582.5C666.028 1585.45 680.298 1587.79 694.534 1589.96C721.912 1594.61 750.365 1596.2 775.844 1608.76C788.584 1614.92 797.637 1628.89 796.928 1643.27C796.732 1657.69 792.005 1670.96 786.558 1683.98C771.579 1718.1 751.261 1749.46 737.956 1783.95C724.215 1817.17 719.793 1860 747.626 1886.19C747.687 1886.25 747.748 1886.31 747.809 1886.38C762.313 1900.48 770.141 1923.45 762.051 1943.02C754.792 1962.15 734.183 1977.31 713.052 1972.97C688.217 1967.5 659.826 1980.81 648.46 2002.93C646.077 2010.26 645.911 2018.15 645.932 2026.06C645.579 2033.55 647.365 2043.61 639.171 2048.96C634.404 2051.68 628.861 2050.85 624.238 2049.45C612.03 2046.3 611.657 2031.21 602.208 2027.29C580.949 2018.51 557.995 2030.44 535.195 2027.77C525.2 2026.6 515.769 2022.1 508.257 2015.54C497.333 2006.06 490.091 1991.85 490.77 1977.31Z" fill="#255791"/>
<path d="M221.376 2389.77C221.797 2383.85 222.387 2378.02 223.159 2372.24C229.402 2319.35 255.645 2270.54 289.309 2229.92C301.033 2215.28 313.286 2201.14 324.935 2186.55C346.609 2159.42 376.977 2141.47 407.712 2127.03C413.031 2124.53 418.39 2122.13 423.772 2119.79C418.487 2122.34 413.225 2124.94 408.006 2127.62C377.82 2143.14 348.239 2161.7 327.405 2188.49C315.883 2203.3 303.713 2217.53 292.041 2232.11C258.556 2272.6 231.986 2319.83 223.817 2372.34C222.839 2378.08 222.029 2383.88 221.376 2389.77Z" fill="#255791"/>
<path d="M556.208 2093.08C554.363 2092.87 552.518 2092.7 550.671 2092.57C534.053 2091.41 517.475 2093.57 501.805 2098.51C486.142 2103.46 471.319 2111.2 458.451 2121.78C457.022 2122.96 455.619 2124.17 454.243 2125.41C455.452 2124 456.705 2122.63 458 2121.29C469.658 2109.23 484.618 2100.25 500.752 2095.17C516.883 2090.07 534.269 2088.85 550.755 2091.91C552.586 2092.25 554.404 2092.64 556.208 2093.08Z" fill="#255791"/>
<path d="M479.841 2064.42C477.964 2064.96 476.096 2065.53 474.235 2066.11C457.488 2071.37 441.369 2078.17 426.002 2086.36C410.638 2094.57 396.019 2104.17 382.36 2115.2C380.843 2116.42 379.337 2117.67 377.844 2118.93C379.176 2117.5 380.534 2116.09 381.915 2114.7C394.347 2102.23 408.742 2091.6 424.355 2083.28C439.965 2074.95 456.8 2068.91 474.07 2065.47C475.989 2065.08 477.913 2064.73 479.841 2064.42Z" fill="#255791"/>
<path d="M1228.33 2707.65C1194.5 2699.33 949.088 2672.95 914.836 2666.47C872.54 2658.47 827.791 2652.04 787.204 2666.28C752.998 2678.29 723.528 2704.47 687.366 2707.65C637.478 2712.04 592.993 2667.56 584.189 2618.79C575.401 2570.02 594.701 2520.2 621.734 2478.51C671.042 2415.78 821.503 2381.94 951.542 2403.78C998.774 2411.72 1052.34 2347.54 1084.02 2383.07C1115.69 2418.62 1185.04 2396.03 1168.9 2440.64C1184.39 2463.96 1262.54 2462.44 1247.19 2478.51C1237.7 2488.43 1313.65 2538.12 1300.49 2542.24C1287.32 2546.35 1325.56 2604.66 1317.14 2593.84" fill="#FF9C56"/>
<path d="M1228.33 2707.65C1200.64 2701.97 1172.43 2698.81 1144.3 2694.97C1067.88 2684.83 991.027 2676.74 915.032 2665.43C873.102 2657.45 828.411 2650.57 786.756 2665.01C752.259 2677.05 723.448 2702.86 687.231 2706.12C637.281 2710.22 594.397 2665.8 585.859 2618.49C577.202 2569.93 596.471 2520.99 622.701 2480.23C622.867 2479.98 623.035 2479.72 623.202 2479.46L623.109 2479.59C706.598 2396.81 838.847 2389.93 951.301 2405.21C975.99 2408.81 998.208 2396.16 1019.31 2386.52C1039.36 2377.16 1066.71 2364.21 1083.15 2383.85C1096.58 2398.9 1116.88 2403.76 1135.51 2407.58C1144.88 2409.65 1154.65 2411.08 1162.76 2415.78C1171.64 2420.35 1171.6 2431.68 1168.1 2440.35L1167.95 2440.75L1168.19 2441.11C1178.67 2454.15 1195.59 2456.81 1210.44 2460.86C1218.04 2462.69 1225.75 2464.29 1233.25 2466.27C1236.99 2467.29 1240.79 2468.36 1244.24 2470.06C1245.89 2470.9 1247.63 2471.95 1248.35 2473.48C1249.09 2475.02 1248.11 2476.74 1246.78 2478.12C1245.62 2479.32 1245.67 2481.01 1246.09 2482.37C1246.28 2483 1246.55 2483.65 1246.87 2484.28C1247.16 2484.85 1247.5 2485.43 1247.89 2486.04C1249.33 2488.25 1251.05 2490.27 1252.84 2492.25C1256.41 2496.13 1260.24 2499.72 1264.13 2503.27C1271.92 2510.34 1279.97 2517.08 1287.77 2524.11C1290.8 2526.86 1293.8 2529.63 1296.61 2532.6C1298 2534.08 1299.36 2535.62 1300.48 2537.29C1301.05 2538.16 1301.55 2539.07 1301.73 2539.95C1301.95 2540.97 1301.45 2541.71 1300.41 2542.01C1297.55 2542.88 1297.31 2546.26 1297.55 2548.64C1297.8 2551.18 1298.49 2553.63 1299.28 2556.05C1300.86 2560.83 1302.94 2565.47 1305.12 2570.01C1307.31 2574.55 1309.68 2579.05 1312.08 2583.45C1313.29 2585.68 1314.52 2587.89 1315.75 2590.09C1316.32 2591.13 1316.99 2592.32 1317.55 2593.39C1317.7 2593.68 1317.87 2594 1317.99 2594.24C1318.03 2594.32 1318.15 2594.56 1318.2 2594.69C1318.24 2594.76 1318.26 2594.82 1318.28 2594.87C1318.31 2594.92 1318.36 2595.08 1318.36 2595.12C1318.2 2595.2 1317.97 2594.83 1317.75 2594.59C1317.58 2594.39 1317.38 2594.14 1317.14 2593.84C1313.98 2582.54 1293.25 2559.15 1300.56 2542.47C1301.72 2542.2 1302.52 2541.03 1302.22 2539.86C1302.03 2538.84 1301.5 2537.91 1300.92 2537C1299.78 2535.27 1298.42 2533.72 1297.03 2532.21C1294.22 2529.19 1291.24 2526.4 1288.22 2523.62C1280.46 2516.52 1272.45 2509.72 1264.74 2502.61C1260.88 2499.05 1257.09 2495.44 1253.59 2491.57C1251.83 2489.61 1250.15 2487.6 1248.78 2485.47C1247.49 2483.4 1246.02 2480.53 1247.59 2478.89C1248.99 2477.45 1250.42 2475.26 1249.4 2473.01C1248.41 2470.95 1246.5 2469.92 1244.78 2468.99C1241.17 2467.2 1237.35 2466.1 1233.59 2465.05C1226.04 2463 1218.35 2461.36 1210.78 2459.48C1196.03 2455.44 1179.11 2452.29 1169.61 2440.16L1169.71 2440.93C1171.37 2436.28 1172.64 2431.43 1172.03 2426.35C1171.51 2421.22 1168.03 2416.72 1163.75 2414.19C1155.08 2409.12 1145.3 2407.73 1135.93 2405.6C1117.32 2401.69 1097.6 2396.73 1084.89 2382.3C1067.04 2361.09 1038.07 2375 1018.2 2384.13C997.029 2393.77 974.955 2405.9 951.782 2402.35C838.508 2386.79 706.261 2392.56 620.358 2477.42L620.265 2477.55C620.096 2477.82 619.927 2478.08 619.759 2478.34C593.286 2519.5 573.586 2569.22 582.519 2619.09C591.461 2667.87 635.392 2713.46 687.501 2709.18C725.084 2705.57 753.854 2679.4 787.652 2667.56C828.376 2653.24 872.723 2659.74 914.639 2667.51C990.96 2678.47 1067.7 2686.05 1144.22 2695.63C1172.37 2699.26 1200.6 2702.2 1228.33 2707.65Z" fill="#255791"/>
<path d="M982.042 2578.44C974.483 2574.78 966.13 2572.91 957.747 2572.34C940.1 2571.19 922.671 2575.02 905.494 2578.18C869.084 2584.92 832.048 2588.09 795.072 2587.61C784.084 2587.47 772.985 2586.97 762.981 2583.04C754.196 2579.64 746.598 2573.59 740.633 2566.23C730.161 2553.27 724.134 2537.14 719.733 2520.92C716.317 2508.18 713.602 2494.66 717.661 2482.26C720.694 2473.02 727.247 2465.26 733.98 2457.93C748.497 2442.12 764.568 2427.35 783.747 2417.58C795.572 2411.57 808.557 2407.62 821.864 2406.73C830.189 2406.18 838.635 2406.87 846.727 2409.07C838.7 2406.64 830.23 2405.72 821.828 2406.07C808.397 2406.63 795.164 2410.31 783.044 2416.17C763.4 2425.67 746.846 2440.38 732.015 2456.1C725.144 2463.4 718.184 2471.32 714.778 2481.3C710.264 2494.72 713.128 2508.89 716.489 2521.78C720.873 2538.26 726.933 2554.82 737.92 2568.44C744.177 2576.17 752.31 2582.65 761.725 2586.26C772.479 2590.42 783.983 2590.82 795.041 2590.9C832.242 2591.12 869.45 2587.44 905.844 2579.98C922.994 2576.48 940.179 2572.3 957.709 2573.01C966.039 2573.36 974.383 2575 982.042 2578.44Z" fill="#255791"/>
<path d="M803.551 2571.64C810.593 2571.76 817.624 2571.6 824.639 2571.16C862.563 2570.82 899.42 2551.44 935.549 2554.01C956.644 2560.68 980.906 2569.74 1003.05 2558.72C1005.48 2557.47 1007.78 2555.96 1009.89 2554.24C1027.43 2539.6 1030.95 2513.35 1022.06 2493.28C1011.58 2470.15 988.699 2455.78 965.506 2448.65C948.709 2443.51 931.251 2441.6 913.927 2440.1C906.928 2439.5 899.928 2438.96 892.935 2438.31C899.902 2439.19 906.886 2439.95 913.86 2440.76C931.125 2442.77 948.455 2445.14 964.897 2450.57C987.591 2458.07 1009.49 2472.53 1019.15 2494.57C1027.37 2513.47 1023.71 2538.28 1007.68 2551.53C1005.75 2553.1 1003.66 2554.47 1001.45 2555.62C981.311 2565.83 957.7 2557.64 936.474 2551.11C896.996 2548.86 862.795 2569.07 824.588 2570.5C817.606 2571.14 810.593 2571.52 803.551 2571.64Z" fill="#255791"/>
<path d="M683.809 2470.73C680.324 2474.92 677.022 2479.26 673.914 2483.74C650.244 2517.83 637.913 2560.02 640.064 2601.81C640.466 2609.46 641.526 2617.14 643.835 2624.56C646.869 2634.45 652.723 2644.26 662.13 2649.66C679.792 2659.65 699.994 2652.89 716.981 2647.03C736.155 2640.22 755.303 2633.33 774.425 2626.37C779.54 2624.51 784.654 2622.64 789.765 2620.77C784.578 2622.42 779.393 2624.08 774.21 2625.74C754.833 2631.96 735.484 2638.26 716.161 2644.63C699.097 2650.18 679.509 2655.95 663.845 2646.76C655.433 2641.83 650.071 2632.93 647.175 2623.52C644.983 2616.48 643.925 2609.06 643.492 2601.62C641.155 2560.63 652.23 2518.97 674.467 2484.11C677.39 2479.53 680.506 2475.06 683.809 2470.73Z" fill="#255791"/>
<path d="M703.885 2443.99C703.885 2443.99 703.885 2443.99 703.885 2443.99C703.603 2447.47 703.275 2450.94 702.902 2454.4C700.188 2479.58 695.081 2504.41 687.68 2528.52C685.906 2534.3 684.117 2540.13 682.714 2546.1C679.522 2559.51 678.054 2575.58 687.102 2587.68C698.565 2603.04 719.072 2604.16 735.956 2602.85C739.441 2602.57 742.917 2602.16 746.367 2601.67C746.367 2601.67 746.367 2601.67 746.367 2601.67C742.892 2601.93 739.402 2602.12 735.922 2602.19C718.967 2602.53 699.345 2600.19 689.491 2585.96C681.594 2574.84 682.991 2560.07 686.121 2546.9C687.489 2541.08 689.222 2535.3 690.931 2529.5C698.123 2505.07 702.371 2479.8 703.565 2454.46C703.73 2450.97 703.836 2447.48 703.885 2443.99Z" fill="#255791"/>
<path d="M623.456 2528.33C622.636 2529.77 621.858 2531.24 621.122 2532.73C614.48 2546.15 611.335 2561.42 611.881 2576.54C612.407 2591.65 616.626 2606.66 624.189 2619.58C625.028 2621.02 625.907 2622.43 626.825 2623.81C626.11 2622.31 625.43 2620.81 624.783 2619.29C618.972 2605.6 615.904 2591.04 615.379 2576.41C614.867 2561.79 616.895 2547.04 621.735 2532.99C622.274 2531.43 622.847 2529.87 623.456 2528.33Z" fill="#255791"/>
<path d="M665.069 2679.1C667.703 2679.12 670.338 2679.14 672.973 2679.13C688.397 2679.07 704.108 2678.3 719.156 2673.64C727.167 2671.16 734.753 2667.64 742.163 2664C752.184 2659.07 761.989 2653.88 772.439 2650.46C784.196 2646.61 796.683 2645.05 809.15 2643.81C811.77 2643.55 814.393 2643.3 817.015 2643.05C814.381 2643.07 811.746 2643.1 809.11 2643.15C796.578 2643.39 783.877 2644.2 771.598 2647.71C760.686 2650.84 750.589 2655.96 740.62 2660.86C733.241 2664.48 725.866 2668.02 718.181 2670.63C703.761 2675.55 688.316 2677.18 672.945 2678.46C670.321 2678.68 667.694 2678.89 665.069 2679.1Z" fill="#255791"/>
<path d="M789.781 2444.52C789.781 2444.52 789.781 2444.52 789.781 2444.52C788.471 2444.17 787.124 2443.93 785.759 2443.81C773.168 2442.78 761.158 2451.25 754.974 2462.14C754.961 2462.16 754.949 2462.19 754.936 2462.21C748.715 2473.26 747.439 2485.92 747.125 2497.98C747.09 2499.33 747.067 2500.69 747.051 2502.04C747.051 2502.04 747.051 2502.04 747.051 2502.04C747.299 2500.71 747.543 2499.38 747.786 2498.05C749.968 2486.13 752.201 2474.14 757.984 2463.93C757.996 2463.91 758.007 2463.89 758.019 2463.87C763.766 2453.93 773.64 2445.43 785.751 2444.48C787.083 2444.38 788.43 2444.4 789.781 2444.52Z" fill="#255791"/>
<path d="M44.3986 3429.52C12.8969 3366.52 138.298 3253.84 204.937 3205.37L666.794 3344.74L613.855 3590.06C467.452 3585.01 75.9003 3492.52 44.3986 3429.52Z" fill="#FF9C56"/>
<path d="M200.15 3204.9C278.792 3218.83 351.15 3267.5 428.397 3241.43C505.643 3215.35 572.565 3166.08 646.83 3132.59C681.113 3117.13 716.841 3105.09 752.491 3093.08C780.035 3083.81 807.704 3074.5 836.352 3069.48C916.548 3055.45 1000.27 3076.38 1071.18 3116.01C1154.25 3162.43 1225.83 3242.64 1229.88 3336.92C1233.89 3430.02 1168.27 3517.61 1082.69 3556.58C1059.07 3567.33 1033.48 3575.03 1007.51 3574.28C989.354 3573.76 971.607 3569.15 953.984 3564.82C920.151 3556.5 886.1 3549.1 851.848 3542.62C809.552 3534.62 764.804 3528.19 724.216 3542.44C690.01 3554.44 660.54 3580.62 624.378 3583.8C574.49 3588.19 530.005 3543.71 521.201 3494.94C512.413 3446.17 531.713 3396.35 558.746 3354.66C629.921 3244.84 765.704 3173.53 895.742 3195.36C942.975 3203.3 989.354 3223.69 1021.03 3259.22C1052.7 3294.77 1067.36 3346.76 1051.23 3391.37C1043.71 3412.18 1030.16 3430.39 1014.8 3446.45C1005.32 3456.37 994.603 3465.87 981.436 3469.99C968.269 3474.11 952.09 3471.54 943.674 3460.72" fill="#FF9C56"/>
<path d="M200.15 3204.9C250.955 3213.98 297.826 3237.4 348.713 3246.39C375.149 3251.07 402.919 3250.66 428.554 3241.89C506.242 3215.79 573.012 3166.73 647.207 3133.43C681.487 3118.03 717.183 3106.06 752.837 3094.11C780.375 3084.88 808.003 3075.63 836.559 3070.66C916.846 3056.76 1000.03 3077.87 1070.47 3117.29C1151.31 3162.7 1223.82 3241.12 1228.22 3336.99C1232.01 3430.99 1165.58 3516.92 1081.96 3554.99C1064.95 3562.72 1047.1 3568.82 1028.65 3571.35C1021.66 3572.31 1014.6 3572.74 1007.56 3572.53C989.621 3572.02 972.013 3567.45 954.4 3563.13C920.533 3554.8 886.438 3547.4 852.168 3540.92C810.196 3533.06 765.385 3526.28 723.66 3540.85C689.112 3553.01 660.408 3578.86 624.236 3582.19C574.347 3586.39 531.316 3542.06 522.691 3494.67C513.893 3445.73 533.414 3396.41 559.898 3355.4C630.628 3246.26 764.902 3174.7 895.602 3196.2C942.32 3203.99 988.597 3223.93 1020.58 3259.62C1050.65 3293.27 1065.91 3342.25 1052.59 3386.24C1052.08 3387.93 1051.52 3389.6 1050.93 3391.26C1043.43 3412.15 1029.9 3430.32 1014.67 3446.32C1005.25 3456.21 994.631 3465.73 981.408 3469.9C968.518 3473.93 952.425 3471.78 943.674 3460.72C952.375 3471.82 968.497 3474.07 981.463 3470.08C994.756 3465.94 1005.46 3456.43 1014.93 3446.58C1030.25 3430.62 1043.9 3412.46 1051.53 3391.48C1052.14 3389.81 1052.7 3388.13 1053.23 3386.43C1066.81 3342.22 1051.66 3292.86 1021.48 3258.83C989.377 3222.75 942.854 3202.52 895.883 3194.53C764.426 3172.49 629.124 3244.06 557.593 3353.91C530.835 3395.18 510.817 3445.07 519.711 3495.21C528.566 3543.92 572.351 3589.58 624.52 3585.42C662.148 3581.88 691.025 3555.74 724.772 3544.02C765.425 3529.84 809.653 3536.43 851.527 3544.32C885.732 3550.8 919.762 3558.2 953.567 3566.52C971.149 3570.84 988.99 3575.49 1007.45 3576.03C1014.7 3576.24 1021.96 3575.8 1029.12 3574.82C1048.03 3572.23 1066.19 3566 1083.41 3558.17C1168.13 3519.55 1235.44 3432.59 1231.55 3336.85C1226.9 3239.25 1153.37 3160.33 1071.9 3114.73C1000.93 3075.18 917.094 3054.07 836.145 3068.3C807.362 3073.38 779.658 3082.75 752.144 3092.05C716.524 3104.11 680.795 3116.2 646.453 3131.75C572.127 3165.41 505.631 3214.64 428.239 3240.96C402.816 3249.76 375.211 3250.29 348.825 3245.73C298.036 3236.98 250.995 3213.75 200.15 3204.9Z" fill="#255791"/>
<path d="M1108.38 3572.84C1110.21 3572.64 1112.02 3572.39 1113.84 3572.1C1130.17 3569.48 1146.02 3563.2 1159.91 3553.99C1173.81 3544.79 1185.79 3532.63 1194.51 3518.58C1195.47 3517.01 1196.4 3515.43 1197.29 3513.83C1196.21 3515.31 1195.1 3516.76 1193.96 3518.19C1183.74 3531.08 1171.52 3542.09 1157.98 3551.07C1144.43 3560.04 1129.53 3566.99 1113.7 3571.45C1111.94 3571.94 1110.17 3572.41 1108.38 3572.84Z" fill="#255791"/>
<path d="M156.768 3253.73C156.768 3253.73 156.768 3253.73 156.768 3253.73C151.507 3252 146.349 3249.97 141.371 3247.58C126.261 3240.36 112.061 3229.22 106.004 3213.58C95.6758 3186.53 111.5 3157.39 131.06 3138.21C134.112 3135.23 137.291 3132.38 140.552 3129.62C159.042 3113.91 180.271 3100.94 197.036 3082.6C214.324 3063.64 225.646 3039.49 229.333 3014.33C230.138 3008.83 230.581 3003.29 230.645 2997.76C230.645 2997.76 230.645 2997.76 230.645 2997.76C230.348 3003.29 229.685 3008.79 228.677 3014.22C224.056 3039.09 212.215 3062.46 194.973 3080.68C178.259 3098.32 157.088 3111 138.288 3126.95C134.976 3129.76 131.74 3132.67 128.628 3135.72C108.573 3155.49 92.344 3186.13 103.905 3214.43C110.701 3230.68 125.656 3241.51 141.094 3248.18C146.19 3250.4 151.439 3252.22 156.768 3253.73Z" fill="#255791"/>
<path d="M141.272 3204.31C142.043 3205.44 142.838 3206.55 143.657 3207.64C151.024 3217.5 160.289 3226.03 170.745 3232.69C181.197 3239.35 192.847 3244.13 204.884 3246.67C206.221 3246.95 207.562 3247.2 208.907 3247.43C207.621 3246.98 206.342 3246.51 205.07 3246.03C193.63 3241.69 182.806 3236.21 172.625 3229.73C162.448 3223.25 152.907 3215.76 144.157 3207.2C143.185 3206.25 142.223 3205.29 141.272 3204.31Z" fill="#255791"/>
<path d="M79.1184 3203.99C76.7262 3207.2 74.7482 3210.73 73.2157 3214.45C65.8231 3232.41 68.7866 3254.74 81.9718 3269.8C93.4546 3282.87 110.064 3289.39 125.997 3294.25C126.565 3294.42 127.133 3294.59 127.701 3294.76C161.828 3304.89 197.057 3310.1 232.188 3314.36C236.16 3314.84 240.134 3315.31 244.108 3315.78C240.167 3315.08 236.226 3314.39 232.285 3313.7C197.413 3307.6 162.508 3301.47 128.698 3291.4C128.137 3291.24 127.574 3291.07 127.013 3290.9C111.241 3286.09 95.2571 3279.96 84.1222 3267.87C71.393 3254.05 67.4951 3232.77 73.8371 3214.69C75.1547 3210.94 76.9174 3207.33 79.1184 3203.99Z" fill="#255791"/>
<path d="M919.234 3454.07C919.234 3454.07 919.234 3454.07 919.234 3454.07C911.656 3450.35 903.262 3448.45 894.838 3447.89C877.186 3446.73 859.759 3450.62 842.587 3453.82C806.142 3460.66 769.053 3463.87 732.026 3463.39C721.02 3463.25 709.902 3462.73 699.898 3458.76C690.861 3455.21 683.113 3448.85 677.086 3441.17C666.845 3428.07 660.931 3411.96 656.59 3395.77C653.168 3382.84 650.448 3369.14 654.515 3356.55C657.544 3347.2 664.104 3339.32 670.859 3331.87C685.369 3315.89 701.439 3300.91 720.688 3290.98C732.485 3284.91 745.46 3280.91 758.768 3279.99C767.132 3279.42 775.622 3280.12 783.746 3282.37C783.746 3282.37 783.746 3282.37 783.746 3282.37C775.688 3279.9 767.174 3278.96 758.731 3279.33C745.297 3279.91 732.072 3283.65 719.98 3289.57C700.262 3299.23 683.709 3314.15 668.884 3330.06C661.99 3337.47 655.024 3345.52 651.628 3355.59C647.112 3369.19 649.975 3383.54 653.342 3396.62C657.664 3413.07 663.608 3429.59 674.339 3443.34C680.651 3451.39 688.939 3458.2 698.631 3461.97C709.387 3466.18 720.919 3466.59 731.994 3466.67C769.25 3466.9 806.512 3463.17 842.941 3455.61C860.085 3452.07 877.266 3447.84 894.8 3448.55C903.17 3448.91 911.555 3450.57 919.234 3454.07Z" fill="#255791"/>
<path d="M838.772 3408.42C842.203 3403.58 846.835 3399.71 852.013 3396.96C866.969 3389.21 884.393 3389.13 900.913 3390.14C923.004 3391.45 948.663 3394.25 967.353 3378.14C978.272 3368.59 982.57 3353.35 981.162 3339.39C980.145 3328.77 976.171 3318.41 969.487 3310.02C953.547 3290.19 927.74 3282 903.473 3280.93C884.781 3280.13 866.321 3283.07 848.103 3286.24C842.276 3287.25 836.456 3288.3 830.621 3289.26C830.621 3289.26 830.621 3289.26 830.621 3289.26C836.489 3288.53 842.348 3287.7 848.206 3286.9C866.523 3284.38 884.986 3282.01 903.349 3283.22C927.174 3284.81 951.946 3293.29 966.829 3312.13C973.011 3319.99 976.727 3329.76 977.678 3339.72C978.991 3352.84 975.028 3366.87 965.145 3375.67C948.235 3390.72 923.223 3388.83 901.033 3387.97C884.345 3387.36 866.6 3387.97 851.689 3396.38C846.534 3399.36 842.008 3403.45 838.772 3408.42Z" fill="#255791"/>
<path d="M620.821 3346.89C617.336 3351.07 614.034 3355.41 610.926 3359.89C587.256 3393.98 574.925 3436.17 577.076 3477.96C577.478 3485.61 578.538 3493.29 580.847 3500.71C583.881 3510.6 589.735 3520.41 599.142 3525.82C616.804 3535.81 637.006 3529.04 653.993 3523.18C673.167 3516.37 692.315 3509.48 711.437 3502.52C716.552 3500.66 721.666 3498.79 726.777 3496.92C721.59 3498.57 716.405 3500.23 711.222 3501.89C691.845 3508.11 672.496 3514.41 653.173 3520.78C636.109 3526.33 616.521 3532.1 600.857 3522.91C592.445 3517.98 587.083 3509.08 584.187 3499.67C581.995 3492.63 580.937 3485.21 580.504 3477.77C578.167 3436.78 589.242 3395.13 611.479 3360.26C614.402 3355.68 617.518 3351.21 620.821 3346.89Z" fill="#255791"/>
<path d="M752.397 3245.91C752.397 3245.91 752.397 3245.91 752.397 3245.91C754.144 3245.14 755.904 3244.42 757.676 3243.73C773.634 3237.55 790.527 3234.5 807.419 3234.33C824.311 3234.18 841.259 3236.9 857.334 3242.77C859.119 3243.42 860.893 3244.12 862.654 3244.85C860.995 3243.91 859.309 3243.01 857.596 3242.16C842.178 3234.49 824.746 3230.66 807.385 3230.83C790.025 3230.99 772.669 3235.16 757.402 3243.12C755.706 3244.01 754.037 3244.94 752.397 3245.91Z" fill="#255791"/>
<path d="M307.55 2924.25C307.991 2926.32 308.571 2928.37 309.251 2930.39C312.971 2941.37 319.446 2951.18 323.038 2961.82C325.411 2968.8 326.567 2976.14 326.754 2983.51C327.184 3002.22 321.98 3020.73 316.639 3038.95C316.04 3040.98 315.434 3043.01 314.832 3045.04C315.654 3043.09 316.469 3041.13 317.266 3039.17C324.373 3021.58 330.681 3002.99 330.252 2983.42C330.06 2975.73 328.688 2968 325.911 2960.78C321.664 2949.75 314.59 2940.58 309.87 2930.14C309.002 2928.22 308.216 2926.26 307.55 2924.25Z" fill="#255791"/>
<path d="M350.093 3313.44C366.723 3324.62 388.259 3326.95 408.04 3323.41C427.821 3319.86 446.205 3310.95 463.657 3301.08C526.961 3265.29 582.283 3215.6 649.453 3187.54" fill="#FF9C56"/>
<path d="M350.093 3313.44C354.712 3316.69 359.804 3319.27 365.138 3321.19C378.832 3326.1 393.856 3326.78 408.221 3324.41C428.293 3321.08 446.91 3312.26 464.447 3302.48C478.701 3294.53 492.519 3285.85 506.097 3276.85C548.474 3248.79 588.675 3217.5 634.147 3194.76C639.191 3192.24 644.288 3189.83 649.453 3187.54C644.198 3189.61 639.005 3191.82 633.86 3194.16C587.444 3215.25 546.372 3245.99 504.164 3273.93C490.626 3282.9 476.933 3291.62 462.867 3299.68C445.56 3309.61 427.455 3318.61 407.859 3322.4C393.85 3325.09 379.083 3324.91 365.352 3320.56C360.002 3318.86 354.842 3316.49 350.093 3313.44Z" fill="#255791"/>
<path d="M296.262 3070.23C296.915 3072.87 297.475 3075.53 297.943 3078.2C301.685 3099.59 299.603 3121.73 292.03 3141.77C291.075 3144.29 290.109 3146.86 289.305 3149.52C287.406 3155.77 285.939 3164.18 291.355 3170.08C293.805 3172.74 297.012 3174.18 300.066 3175.22C314.521 3180.1 330.924 3177.27 342.92 3168.6C345.14 3167 347.206 3165.19 349.069 3163.21C349.069 3163.21 349.069 3163.21 349.069 3163.21C347.043 3165.02 344.855 3166.64 342.551 3168.05C330.103 3175.64 314.389 3177.3 301.088 3172.35C298.263 3171.3 295.595 3169.93 293.806 3167.88C289.817 3163.47 290.797 3156.59 292.656 3150.53C293.416 3148.02 294.342 3145.51 295.276 3142.98C302.933 3122.24 304.027 3099.22 298.593 3078.06C297.916 3075.42 297.139 3072.81 296.262 3070.23Z" fill="#255791"/>
<path d="M640.897 3320.14C640.897 3320.14 640.897 3320.14 640.897 3320.14C640.615 3323.62 640.287 3327.09 639.914 3330.56C637.2 3355.74 632.093 3380.57 624.692 3404.67C622.918 3410.45 621.129 3416.28 619.726 3422.25C616.534 3435.66 615.066 3451.73 624.114 3463.83C635.577 3479.19 656.084 3480.31 672.968 3479C676.453 3478.72 679.929 3478.31 683.379 3477.82C683.379 3477.82 683.379 3477.82 683.379 3477.82C679.904 3478.08 676.414 3478.27 672.934 3478.34C655.979 3478.68 636.357 3476.34 626.503 3462.11C618.606 3450.99 620.003 3436.23 623.133 3423.05C624.501 3417.23 626.234 3411.46 627.943 3405.65C635.135 3381.22 639.383 3355.95 640.577 3330.61C640.742 3327.12 640.848 3323.63 640.897 3320.14Z" fill="#255791"/>
<path d="M883.818 3436.64C884.641 3433.53 886.259 3430.71 888.337 3428.33C891.556 3424.66 895.797 3421.99 900.336 3420.39C907.946 3417.74 916.183 3417.82 924.223 3418.6C931.629 3419.31 938.969 3420.58 946.158 3422.41C953.402 3424.21 961.173 3426.86 969.379 3425.24C969.965 3425.12 970.545 3424.98 971.118 3424.82C975.644 3423.54 979.591 3421.08 983.156 3418.42C1003.31 3403.35 1014.37 3377.6 1012.14 3353.07C1011.85 3349.86 1011.34 3346.69 1010.6 3343.57C1011.11 3346.73 1011.4 3349.92 1011.48 3353.11C1012.05 3377.48 1000.38 3401.52 981.112 3415.66C977.689 3418.17 974.065 3420.35 970.17 3421.45C969.677 3421.59 969.18 3421.71 968.681 3421.81C961.719 3423.24 954.365 3420.97 946.933 3419.23C939.537 3417.49 931.998 3416.4 924.431 3415.95C916.208 3415.45 907.589 3415.73 899.782 3418.94C895.105 3420.88 890.878 3423.93 887.822 3427.91C885.85 3430.49 884.411 3433.48 883.818 3436.64Z" fill="#255791"/>
<path d="M575.421 3268.27C577.721 3266.41 580.059 3264.6 582.428 3262.84C595.758 3252.92 610.024 3244.46 624.222 3235.83C632.315 3230.9 640.382 3225.94 648.412 3220.91C648.841 3220.64 649.272 3220.37 649.703 3220.1C672.12 3206.17 695.137 3191.62 721.758 3188.66C724.687 3188.35 727.636 3188.19 730.598 3188.19C730.598 3188.19 730.598 3188.19 730.598 3188.19C727.646 3187.95 724.678 3187.89 721.711 3188C694.614 3189.06 670.229 3203.19 647.848 3217.13C647.416 3217.4 646.984 3217.67 646.553 3217.94C638.532 3222.98 630.535 3228.06 622.576 3233.2C608.619 3242.21 594.65 3251.44 582.012 3262.32C579.767 3264.25 577.567 3266.23 575.421 3268.27Z" fill="#255791"/>
<path d="M272.832 3280.81C275.917 3278.16 279.4 3276.03 283.097 3274.43C297.436 3268.33 313.579 3269.47 328.482 3272.73C347.435 3276.95 366.172 3284.63 386.486 3284.19C387.882 3284.15 389.263 3284.08 390.64 3283.97C429.025 3280.47 456.514 3252.08 488.699 3235.69C492.301 3233.83 495.971 3232.1 499.727 3230.56C495.889 3231.88 492.118 3233.42 488.409 3235.09C455.167 3250.01 426.828 3277.36 390.365 3280.49C389.049 3280.59 387.73 3280.66 386.398 3280.69C367.076 3281.2 348.389 3273.97 329.006 3270.22C313.716 3267.34 297.061 3266.87 282.816 3273.82C279.152 3275.65 275.76 3277.99 272.832 3280.81Z" fill="#255791"/>
<path d="M180.213 3271.75C180.213 3271.75 180.213 3271.75 180.213 3271.75C181.191 3271.77 182.166 3271.79 183.14 3271.82C191.906 3272.03 200.548 3272.43 209.179 3272.97C217.811 3273.52 226.432 3274.22 235.155 3275.12C236.125 3275.22 237.095 3275.32 238.067 3275.42C238.067 3275.42 238.067 3275.42 238.067 3275.42C237.147 3275.09 236.223 3274.77 235.294 3274.47C226.934 3271.71 218.202 3270.04 209.401 3269.48C200.599 3268.92 191.726 3269.48 183.085 3271.15C182.125 3271.34 181.167 3271.54 180.213 3271.75Z" fill="#255791"/>
<path d="M560.468 3404.48C559.648 3405.92 558.87 3407.39 558.134 3408.88C551.492 3422.3 548.347 3437.58 548.893 3452.69C549.419 3467.8 553.638 3482.81 561.201 3495.74C562.04 3497.17 562.919 3498.58 563.837 3499.96C563.122 3498.46 562.442 3496.96 561.795 3495.44C555.984 3481.75 552.916 3467.19 552.391 3452.56C551.879 3437.94 553.907 3423.2 558.747 3409.14C559.286 3407.58 559.859 3406.03 560.468 3404.48Z" fill="#255791"/>
<path d="M602.081 3555.26C604.715 3555.27 607.35 3555.29 609.985 3555.28C625.409 3555.22 641.12 3554.45 656.168 3549.79C664.179 3547.31 671.765 3543.79 679.175 3540.15C689.196 3535.22 699.001 3530.03 709.45 3526.61C721.208 3522.76 733.695 3521.2 746.162 3519.96C748.781 3519.7 751.405 3519.45 754.027 3519.2C751.393 3519.22 748.758 3519.25 746.122 3519.3C733.59 3519.54 720.889 3520.36 708.61 3523.86C697.698 3526.99 687.601 3532.11 677.632 3537.01C670.253 3540.63 662.878 3544.17 655.193 3546.78C640.773 3551.7 625.328 3553.33 609.957 3554.61C607.333 3554.83 604.706 3555.04 602.081 3555.26Z" fill="#255791"/>
<path d="M899.019 3617.35C900.737 3617.14 902.459 3617.14 904.164 3617.27C910.927 3617.82 917.331 3620.41 924.496 3620.69C933.679 3621.05 942.364 3617.05 949.685 3612.24C962.894 3603.73 973.546 3591.7 988.744 3587.95C990.41 3587.56 992.106 3587.29 993.842 3587.17C992.104 3587.06 990.368 3587.1 988.634 3587.29C972.574 3589.25 960.443 3601.17 947.774 3609.31C940.655 3613.97 932.909 3617.83 924.5 3618.07C917.939 3618.31 911.122 3616.34 904.175 3616.61C902.43 3616.68 900.692 3616.91 899.019 3617.35Z" fill="#255791"/>
<path d="M1126.18 3599.77C1126.18 3599.77 1126.18 3599.77 1126.18 3599.77C1127.09 3599.7 1127.99 3599.63 1128.9 3599.56C1137.06 3598.93 1145.11 3598.32 1153.15 3597.71C1161.2 3597.09 1169.25 3596.47 1177.41 3595.85C1178.32 3595.78 1179.22 3595.71 1180.13 3595.64C1180.13 3595.64 1180.13 3595.64 1180.13 3595.64C1179.24 3595.48 1178.34 3595.32 1177.44 3595.18C1169.33 3593.91 1161.07 3593.59 1152.89 3594.22C1144.7 3594.84 1136.59 3596.42 1128.77 3598.91C1127.9 3599.18 1127.04 3599.47 1126.18 3599.77Z" fill="#255791"/>
<path d="M814.536 3255.43C816.579 3257.74 818.897 3259.83 821.422 3261.64C838.512 3273.58 860.938 3272.99 880.703 3269.61C888.171 3268.28 895.54 3266.63 902.904 3265.17C918.256 3262.14 934.067 3259.83 949.191 3263.6C960.531 3266.41 971.073 3272.69 979.115 3281.44C981.19 3283.69 983.098 3286.12 984.804 3288.69C983.297 3286 981.558 3283.42 979.62 3281C972.11 3271.62 961.603 3264.5 949.862 3261.11C934.21 3256.55 917.684 3258.68 902.225 3261.74C894.794 3263.21 887.452 3264.92 880.098 3266.37C860.725 3270.02 839.295 3271.59 821.792 3261.09C819.189 3259.48 816.748 3257.58 814.536 3255.43Z" fill="#255791"/>
<path d="M739.262 3315.65C739.262 3315.65 739.262 3315.65 739.262 3315.65C737.952 3315.3 736.605 3315.06 735.239 3314.94C722.649 3313.91 710.639 3322.39 704.455 3333.28C704.442 3333.3 704.429 3333.32 704.417 3333.34C698.196 3344.39 696.92 3357.05 696.606 3369.11C696.571 3370.47 696.548 3371.82 696.532 3373.17C696.532 3373.17 696.532 3373.17 696.532 3373.17C696.78 3371.84 697.023 3370.51 697.267 3369.18C699.449 3357.27 701.681 3345.28 707.465 3335.06C707.476 3335.04 707.488 3335.02 707.499 3335C713.246 3325.07 723.12 3316.57 735.232 3315.61C736.564 3315.52 737.911 3315.53 739.262 3315.65Z" fill="#255791"/>
</g>
<defs>
<clipPath id="clip0_1333_7031">
<rect width="1142" height="3605" fill="white"/>
</clipPath>
</defs>
</svg>
